<?xml version="1.0" encoding="UTF-8"?>
<svg id="Layer_2" data-name="Layer 2" xmlns="http://www.w3.org/2000/svg" viewBox="0 0 1000 1000">
  <defs>
    <style>
      .cls-1 {
        fill: #0f2559;
      }

      .cls-2 {
        fill: #be1e2d;
      }

      .cls-3 {
        fill: #ffcc04;
      }
    </style>
  </defs>
  <path class="cls-1" d="M728.9,668.76c42.55-74.29,45.31-168.64-.95-247.89-30.97-53.05-78.73-90.22-132.54-108.9-4.59-1.35-9.22-2.53-13.91-3.54-32.9-7.09-67.69-5.76-100.9,4.9-.02.02-.05.02-.08.03-3.06.97-6.1,2.03-9.13,3.18-.02.01-.05.02-.07.03-2.01.76-4.01,1.55-6.01,2.38-.02.01-.05.02-.07.03-2.84,1.18-5.66,2.43-8.46,3.76-.45.21-.91.43-1.36.65-1.68.8-3.35,1.63-5.01,2.49-3.01,1.56-6,3.2-8.96,4.93-.88.52-1.76,1.05-2.62,1.59-.39.24-.78.49-1.17.75-.5.32-1,.65-1.49.99-1.26.86-2.49,1.75-3.7,2.65-.02.01-.04.02-.06.04-2.2,1.66-4.31,3.41-6.32,5.25-1.2,1.09-2.37,2.21-3.5,3.36-.53.54-1.05,1.08-1.57,1.63-.51.55-1.02,1.1-1.52,1.66s-1,1.13-1.48,1.7-.96,1.15-1.43,1.73c-.47.58-.93,1.17-1.39,1.76-.69.89-1.35,1.78-1.99,2.69-.32.46-.64.91-.95,1.37-.32.46-.62.93-.93,1.39-.3.46-.6.93-.9,1.4-17.49,27.76-19.3,64.08-1.61,94.38,16.97,29.06,47.56,45.22,78.95,45.11.01-.01.01-.03.02-.04,15.6-27.25,44.89-45.66,78.53-45.82,37.3-.18,69.46,22.12,83.62,54.18h0c.95,2.17,1.83,4.37,2.62,6.62.2.56.39,1.13.58,1.7.23.7.45,1.4.66,2.1.14.46.28.92.41,1.38.18.64.36,1.3.53,1.95.2.72.38,1.45.55,2.18s.34,1.47.49,2.21c.16.74.31,1.48.43,2.22.15.74.28,1.49.38,2.24.13.75.24,1.5.33,2.26.2,1.51.36,3.03.48,4.57.06.76.12,1.53.16,2.31.04.77.08,1.54.1,2.32.02.78.04,1.56.04,2.34v.94c0,1.07-.01,2.15-.03,3.22v.17c-.01.44-.02.89-.03,1.34,0,.33-.01.66-.03.99,0,.45-.02.91-.04,1.36-.01.36-.02.71-.04,1.06-.03.79-.06,1.58-.11,2.37-.06,1.17-.13,2.34-.22,3.51-.05.7-.1,1.41-.16,2.11-.11,1.4-.24,2.8-.39,4.19s-.3,2.79-.47,4.17c-.18,1.38-.36,2.76-.57,4.14,0,.11-.02.23-.05.34-.05.41-.11.82-.18,1.23-.02.17-.04.34-.08.5-.19,1.2-.39,2.4-.6,3.59-.21,1.19-.43,2.38-.67,3.57-.23,1.18-.47,2.36-.73,3.54-.25,1.18-.51,2.35-.79,3.52-.27,1.17-.56,2.34-.86,3.5-.29,1.16-.6,2.32-.91,3.47-.32,1.15-.65,2.3-.98,3.44v.02c-.34,1.14-.69,2.28-1.04,3.4-.27.85-.54,1.7-.82,2.55-.56,1.7-1.14,3.38-1.74,5.05-.27.76-.55,1.52-.83,2.27-.56,1.51-1.14,3-1.75,4.49,0,0,.01,0,0,0-8.72,21.6-21.15,41.29-36.53,58.27-3.22,3.55-6.56,6.97-10.02,10.28-43.08,37.26-99.15,60.04-160.58,60.33-94.48.45-176.84-52.11-218.88-129.76-.02-.03-.04-.06-.05-.09-.07-.1-.13-.2-.19-.3-.05-.08-.1-.17-.15-.25-5.68-9.43-11.25-19.62-16.55-30.46,6.67,22.03,16.01,43.64,28.12,64.4,52.24,89.48,143.65,141.88,239.81,148.15h.08c126.83,1.74,228.21-78.85,243.92-175.98,14.61-90.4-44.88-195.81-109.76-207.34-51.12-9.08-93.21,42.3-132.4,18.56-18.26-11.06-29.98-34.86-25.9-53.39,8.05-36.61,77.68-52.46,124.35-48.71,89.59,7.2,143.4,90.54,153.82,107.38-12.1-18.96-42.48-60.41-96.45-78.22-55.84-18.43-125.76-9.29-132.65,14-3.15,10.63,6.5,25.28,17.84,30.55,16.97,7.87,33.87-7.05,55.85-13.26,41.74-11.78,83.26,13.08,99.8,22.98,65.17,39.02,100.02,162.54,61.95,252.32l-.11.26Z"/>
  <path class="cls-2" d="M748.21,649.02c-10.65,18.66-23.01,35.72-36.78,51.13.89-1.28,1.75-2.55,2.6-3.82,5.83-8.7,10.77-17.94,14.87-27.57l.11-.26c42.38-74.24,45.08-168.45-1.12-247.59-30.97-53.05-78.73-90.23-132.54-108.9-4.59-1.35-9.23-2.53-13.91-3.53-32.89-7.09-67.65-5.77-100.84,4.85-.02.02-.05.02-.08.03-3.05.98-6.1,2.05-9.13,3.18-.02.01-.05.02-.07.03-2.01.76-4.01,1.55-6.01,2.38-.02.01-.05.02-.07.03-2.84,1.18-5.66,2.43-8.46,3.76-.45.21-.91.43-1.36.65-1.68.8-3.35,1.63-5.01,2.49-3.01,1.56-6,3.2-8.96,4.93-.88.52-1.76,1.05-2.62,1.59-.39.24-.78.49-1.17.75-.5.32-1,.65-1.49.99-1.26.85-2.49,1.73-3.7,2.65-.02.01-.04.02-.06.04-2.2,1.66-4.31,3.41-6.32,5.25-1.2,1.09-2.37,2.21-3.5,3.36-.53.53-1.06,1.07-1.57,1.63-.52.54-1.03,1.1-1.52,1.66-.5.56-1,1.13-1.48,1.7-.49.57-.97,1.14-1.43,1.73-.48.58-.94,1.17-1.39,1.76-.69.89-1.35,1.78-1.99,2.69-.33.45-.65.91-.95,1.37-.33.46-.64.92-.93,1.39-.32.46-.62.93-.9,1.4-.29.46-.57.91-.85,1.37-.84,1.38-1.63,2.78-2.39,4.19,0,0,0,.01,0,.01-14.45,26.94-14.96,60.53,1.58,88.85,16.96,29.06,47.55,45.23,78.94,45.11h.05c15.79,27.12,17.09,61.7.41,90.92-15.51,27.13-42.85,43.26-71.81,45.57h-.01c-.95.07-1.9.14-2.85.18-.48.03-.95.04-1.43.06-1.75.06-3.5.07-5.26.02-.77-.02-1.54-.05-2.31-.09-.76-.03-1.53-.08-2.3-.14-1.53-.11-3.05-.27-4.57-.46-.02,0-.03-.01-.04-.01-1.28-.16-2.55-.36-3.82-.58-.02,0-.05-.01-.07-.01-.49-.08-.98-.17-1.47-.27-.51-.09-1.02-.2-1.53-.3-.69-.14-1.39-.29-2.08-.46-1.39-.32-2.77-.68-4.15-1.07-.69-.19-1.38-.4-2.06-.61-.59-.18-1.19-.37-1.78-.56-.15-.05-.3-.1-.46-.16-.6-.2-1.2-.41-1.79-.63-.67-.24-1.33-.49-2-.75-.52-.2-1.04-.41-1.55-.62-1.58-.64-3.15-1.34-4.7-2.08-.48-.23-.96-.46-1.44-.71-.39-.19-.78-.39-1.18-.6-.47-.24-.94-.49-1.41-.74-.65-.35-1.29-.7-1.93-1.07-.72-.41-1.44-.83-2.15-1.25-.72-.41-1.42-.84-2.13-1.27-3.33-2-6.58-4.1-9.74-6.28-.82-.56-1.63-1.13-2.44-1.71-.17-.11-.33-.23-.5-.35,0,0-.01,0-.02-.01-.09-.07-.19-.13-.28-.2-.64-.46-1.27-.91-1.9-1.38-.09-.07-.19-.14-.28-.21-.15-.1-.29-.2-.43-.31-.58-.43-1.15-.86-1.72-1.3-.32-.25-.64-.49-.96-.73-.86-.67-1.71-1.34-2.56-2.01-.04-.04-.09-.07-.14-.11-.6-.48-1.2-.96-1.8-1.45-.28-.23-.55-.45-.82-.68-.32-.26-.64-.53-.96-.79-.59-.49-1.17-.99-1.75-1.49-1.17-1-2.32-2.01-3.46-3.03-1.13-1.03-2.26-2.06-3.37-3.11-.56-.51-1.1-1.04-1.65-1.57-.2-.19-.4-.38-.59-.58-.2-.19-.39-.38-.59-.57-.69-.68-1.38-1.37-2.06-2.06-.52-.52-1.04-1.05-1.55-1.58-.05-.05-.1-.1-.15-.15-.13-.14-.27-.28-.4-.42-.63-.66-1.26-1.33-1.89-2-.75-.81-1.5-1.62-2.24-2.45-.58-.65-1.16-1.3-1.74-1.95-17.79-20.32-30.96-43.89-39.07-69.06-1.46-4.56-2.76-9.17-3.89-13.82-10.73-55.94-2.42-115.89,28.04-169.23,47.05-82.4,134.3-127.48,222.96-124.66h.02c.22.01.44.01.66.03-99.92,7.74-194.36,103.15-195.34,181.32-.24,19.27-.84,67.66,30.34,97.8,16.43,15.88,37.82,22.98,39.55,41.61,1.15,12.45-6.66,28.16-17.42,30.78-23.6,5.76-66.67-50.07-78.83-107.6-11.62-54.92,8.28-101.55,18.7-121.96-10.13,19.13-53.36,106.26-15.04,186.21,20.23,42.23,68.95,94.43,104.64,82.98,18.07-5.8,32.74-27.9,33.12-49.25.8-45.81-64.78-56.34-82.64-105.09-22.67-61.88,38.51-166.32,123.99-199.16,85.1-32.69,194.91,5.33,260.12,98.97,2.44,4,4.78,8.04,7.02,12.14.01.02.03.04.03.06,48.28,88.36,50.95,198.96-2.64,292.82Z"/>
  <path class="cls-3" d="M657.7,544.98v.94c0,1.07-.01,2.15-.03,3.22v.17c-.01.44-.02.89-.03,1.34,0,.33-.01.66-.03.99,0,.45-.02.91-.04,1.36-.01.36-.02.71-.04,1.06-.03.79-.06,1.58-.11,2.37-.06,1.17-.13,2.34-.22,3.51-.05.7-.1,1.41-.16,2.11-.11,1.4-.24,2.8-.39,4.19s-.3,2.79-.47,4.17c-.18,1.38-.36,2.76-.57,4.14,0,.11-.02.23-.05.34-.05.41-.11.82-.18,1.23-.02.17-.04.34-.08.5-.19,1.2-.39,2.4-.6,3.59-.21,1.19-.43,2.38-.67,3.57-.23,1.18-.47,2.36-.73,3.54-.25,1.18-.51,2.35-.79,3.52-.27,1.17-.56,2.34-.86,3.5-.29,1.16-.6,2.32-.91,3.47-.32,1.15-.65,2.3-.98,3.44v.02c-.34,1.14-.69,2.28-1.04,3.4-.27.85-.54,1.7-.82,2.55-.56,1.7-1.14,3.38-1.74,5.05-1.07,2.96-2.2,5.9-3.41,8.79-8.64,20.84-20.79,39.86-35.7,56.33-3.21,3.54-6.56,6.97-10.01,10.27-43.09,37.26-99.16,60.04-160.59,60.33-94.77.45-177.34-52.43-219.27-130.47.05.08.1.17.15.25.06.1.12.2.19.3.01.03.03.06.05.09,56.1,92.31,203.8,122.69,273.46,75.62,15.97-10.79,56.06-37.89,63.05-80.69,3.68-22.55-2.69-44.18,11.63-56.21,9.57-8.05,26.93-10.59,35.22-3.25,18.19,16.1-3.12,83.32-43.45,126.12-38.7,41.07-88.67,51.2-111.21,54.22,20.72-2.46,117.82-16.35,161.91-93.87,23.15-40.69,38.26-110.48,8.5-133.27-15.07-11.54-41.59-10.99-59.34.87-38.09,25.46-9.36,85.34-39.22,127.81-37.9,53.91-158.58,63.2-234.3,11.7-81.38-55.35-111.48-181.35-56.18-295.55-.11-.06-.21-.11-.32-.17,51.44-89.86,148.06-150.59,259.04-151.12,23.48-.11,46.33,2.49,68.27,7.5-2.99-.26-5.94-.48-8.86-.67-7.53-.48-15.07-.42-22.58.14h-.04c-.07,0-.13,0-.2.02h-.02s-.05,0-.08.01c-.22-.01-.44-.02-.66-.03h-.04c-88.76-2.93-176.14,42.16-223.24,124.65-30.46,53.34-38.78,113.29-28.05,169.23,1.14,4.65,2.43,9.25,3.9,13.81,8.1,25.19,21.3,48.79,39.13,69.1.58.65,1.16,1.3,1.74,1.95.74.83,1.49,1.64,2.24,2.45.63.67,1.26,1.34,1.89,2,.13.14.27.28.4.42.05.05.1.1.15.15.51.53,1.03,1.06,1.55,1.58.68.69,1.37,1.38,2.06,2.06.2.19.39.38.59.57.74.73,1.49,1.44,2.24,2.15,1.11,1.05,2.24,2.08,3.37,3.11,1.14,1.02,2.29,2.03,3.46,3.03.9.77,1.8,1.53,2.71,2.28.87.72,1.74,1.43,2.62,2.13.05.04.1.07.14.11.85.67,1.7,1.34,2.56,2.01.32.24.64.48.96.73.71.54,1.43,1.08,2.15,1.61.09.07.19.14.28.21.63.47,1.26.92,1.9,1.38.09.07.19.13.28.2,0,.01.02.01.02.01.17.12.33.24.5.35.81.59,1.62,1.15,2.44,1.71,3.16,2.18,6.41,4.28,9.74,6.28.71.43,1.41.86,2.13,1.27.71.42,1.43.84,2.15,1.25.64.37,1.28.72,1.93,1.07.47.25.94.5,1.41.74.4.21.79.41,1.18.6.48.25.96.48,1.44.71,1.55.74,3.12,1.44,4.7,2.08.51.22,1.03.42,1.55.62.67.26,1.33.51,2,.75.59.22,1.19.43,1.79.63.16.06.31.11.46.16.59.2,1.19.39,1.78.56.68.21,1.37.42,2.06.61,1.38.39,2.76.75,4.15,1.07.69.17,1.39.32,2.08.46.51.1,1.02.21,1.53.3.49.1.98.19,1.47.27.02,0,.05.01.07.01,1.27.22,2.54.42,3.82.58.01,0,.02.01.04.01,1.52.19,3.04.35,4.57.46.77.06,1.54.11,2.3.14.77.05,1.54.08,2.31.09,1.76.05,3.51.04,5.26-.02.48-.02.95-.03,1.43-.06.95-.04,1.9-.1,2.85-.18h.01c28.98-2.27,56.37-18.39,71.88-45.54,16.68-29.21,15.38-63.79-.41-90.91-.01-.02-.02-.03-.03-.05,15.6-27.24,44.89-45.65,78.54-45.81,37.27-.18,69.4,22.08,83.61,54.1h0c.95,2.17,1.83,4.37,2.62,6.62.2.56.39,1.13.58,1.7.23.7.45,1.4.66,2.1.14.46.28.92.41,1.38.18.64.36,1.3.53,1.95.19.73.37,1.45.55,2.18.17.73.33,1.47.49,2.21.15.73.29,1.47.43,2.22.14.74.26,1.49.38,2.24.12.75.23,1.5.33,2.26.2,1.51.36,3.03.48,4.57.06.76.12,1.53.16,2.31.04.77.08,1.54.1,2.32.02.78.04,1.56.04,2.34Z"/>
</svg>