<?xml version="1.0" encoding="UTF-8"?>
<svg id="Layer_1" xmlns="http://www.w3.org/2000/svg" version="1.1" viewBox="0 0 1000 1000">
  <!-- Generator: Adobe Illustrator 29.7.0, SVG Export Plug-In . SVG Version: 2.1.1 Build 138)  -->
  <defs>
    <style>
      .st0 {
        fill: #ffcb00;
      }

      .st0, .st1, .st2 {
        fill-rule: evenodd;
      }

      .st1 {
        fill: #2e3194;
      }

      .st2 {
        fill: #db0000;
      }
    </style>
  </defs>
  <path class="st0" d="M477.5,209.05c-122.62.31-222.26,99.69-222.71,222.48-.15,41.23,16.97,81.14,46.47,109.85,23.7,23.07,58.49,40.79,92.33,34.04,32.34-6.45,51.63-32.94,61.88-62.49,15.28-50.86,1.59-105.95,11.79-157.68,6.31-31.98,21.49-61.85,49.34-80.11,33.21-21.77,73.96-20.38,110.59-9.03-56.75-50.93-136.24-50.04-182.47,13.63l-.1.12c-35.05,43.47-39.91,113.91-38.57,167.34,2.03,81.13-84.87,87.16-111.13,13.4l-.03-.1-.03-.1c-21.57-76.04,23.73-188.15,99.91-213.2-33.02,29.75-53.92,65.54-64.43,108.7-6.99,28.71-9.64,64.89-2.34,93.83,10.02,39.67,47.85,32.23,42.69-.41-8.33-52.61-.32-107.86,24.09-155.33,18.09-35.18,46.48-67.78,82.72-84.96h0Z"/>
  <path class="st1" d="M242.25,689.61c66.96,102.72,204.55,132.27,307.83,65.86,34.68-22.3,58.85-58.38,66.9-98.75,6.46-32.44,2.41-71.27-21.66-95.99-23.01-23.63-55.73-25.4-86.1-17.94-50.99,14.84-89.77,56.3-138.72,75.88-30.26,12.1-63.59,15.61-94.06,2.17-36.33-16.03-57.33-50.98-67.74-87.89-11.87,75.33,32.12,141.54,110.69,145.7h.16c55.54,5.77,117.29-28.46,161.4-58.65,66.97-45.84,119.3,23.8,71.69,85.96l-.06.08-.07.08c-52.07,59.46-170.78,82.43-233.24,32.13,42.93,11.53,84.32,9.59,126.26-5.06,27.89-9.75,59.69-27.2,80-49.08,27.84-29.98,1.01-57.68-23.57-35.59-39.62,35.61-90.33,58.94-143.44,64.28-39.36,3.96-82.15-2.13-116.28-23.19h0Z"/>
  <path class="st2" d="M762.82,647.36c61.76-105.92,26.45-242.15-79.24-304.66-35.49-20.99-78.58-26.41-118.27-15.49-31.89,8.78-64.78,29.81-76.07,62.42-10.79,31.16,2.3,61.2,22.59,84.99,36.14,38.92,90.59,54.97,130.04,89.94,24.39,21.62,42.48,49.83,44.14,83.09,1.98,39.66-19.84,74.11-48.16,99.97,72.65-23.19,112.09-92.21,80.56-164.29l-.06-.15c-19.77-52.22-78.06-92.06-124.83-117.93-71.01-39.29-32.25-117.3,44.66-102.64l.1.02.1.03c76.5,19.86,150.29,115.65,133.35,194.04-8.96-43.54-29.25-79.66-61.17-110.57-21.22-20.56-51.09-41.15-79.75-49.48-39.28-11.43-52.01,24.97-21.24,37.03,49.59,19.43,93.2,54.29,121.8,99.36,21.19,33.41,34.95,74.38,31.44,114.33h0Z"/>
</svg>