<?xml version="1.0" encoding="UTF-8"?>
<svg id="Layer_1" xmlns="http://www.w3.org/2000/svg" version="1.1" viewBox="0 0 1000 1000">
  <!-- Generator: Adobe Illustrator 29.7.0, SVG Export Plug-In . SVG Version: 2.1.1 Build 138)  -->
  <defs>
    <style>
      .st0 {
        fill: #2e3194;
      }
    </style>
  </defs>
  <path class="st0" d="M210.12,538.76c-.73-.61-1.09-1.52-1.09-2.73,0-.32.08-.97.24-1.94,3-14.83,4.5-28.44,4.5-40.83,0-5.91-.24-10.59-.73-14.04-.49-3.44-1.62-6.66-3.4-9.66-.73-1.13-1.09-1.98-1.09-2.55,0-1.46,1.21-2.96,3.65-4.5,2.43-1.54,4.74-2.31,6.93-2.31,2.59,0,4.23,1.09,4.92,3.28.69,2.19,1.03,5.27,1.03,9.23,0,2.11-.32,6.89-.97,14.34-1.21,10.77-1.82,19.44-1.82,26.01,0,7.86.49,14.54,1.46,20.05.32,1.94-.61,3.52-2.8,4.74s-4.58,1.82-7.17,1.82c-1.7,0-2.92-.3-3.65-.91ZM245.79,533.66c-4.58-3.85-8.53-8.45-11.85-13.79-3.32-5.35-5.71-10.25-7.17-14.7-.73-2.19-1.09-4.09-1.09-5.71,0-1.78.65-3.93,1.94-6.44,2.02-3.72,5.21-8.2,9.54-13.43,4.33-5.23,8.97-9.76,13.91-13.61,4.94-3.85,9.36-5.77,13.24-5.77,2.11,0,3.71.63,4.8,1.88,1.09,1.26,1.64,2.82,1.64,4.68,0,2.27-.65,4.48-1.94,6.62-1.3,2.15-2.84,3.22-4.62,3.22-.57,0-1.34-.1-2.31-.3-.97-.2-1.82-.3-2.55-.3-2.75,0-5.55.97-8.38,2.92-2.35,1.62-5.19,4.17-8.51,7.66-3.32,3.48-6.2,7.13-8.63,10.94,2.02,4.94,5.59,10.33,10.69,16.16,3.97,4.54,7.72,7.78,11.24,9.72,3.52,1.94,7.76,2.92,12.7,2.92.97,0,1.66.24,2.07.73s.61,1.26.61,2.31c0,2.67-.93,5.02-2.8,7.05-1.86,2.02-4.62,3.04-8.26,3.04-4.94,0-9.7-1.92-14.28-5.77Z"/>
  <path class="st0" d="M279.14,535.3c-2.92-3.08-4.37-7.41-4.37-13s1.42-10.86,4.25-16.04c2.83-5.18,6.87-9.42,12.09-12.7,5.23-3.28,11.2-4.92,17.92-4.92,5.02,0,9.22.85,12.58,2.55,3.36,1.7,5.04,3.93,5.04,6.68,0,.89-.08,1.88-.24,2.98-.16,1.09-.36,2-.61,2.73-.65,1.7-1.58,2.55-2.8,2.55-.32,0-.93-.12-1.82-.36-.65,3.65-.97,6.93-.97,9.84,0,7.53,2.31,11.75,6.93,12.64.89.24,1.52.53,1.88.85.37.32.55.97.55,1.94,0,1.94-.67,3.89-2,5.83-1.34,1.94-3.55,2.92-6.62,2.92s-5.59-1.16-7.29-3.46c-1.7-2.31-2.55-5.61-2.55-9.9-2.27,4.13-5.13,7.41-8.57,9.84-3.44,2.43-7.31,3.64-11.6,3.64-4.94,0-8.87-1.54-11.79-4.62ZM303.2,524.36c2.51-1.94,4.5-4.54,5.95-7.78,1.62-3.4,2.63-7.82,3.04-13.25-3.08-1.46-6.52-2.19-10.33-2.19-4.94,0-9.01,1.46-12.21,4.37-3.2,2.92-4.8,6.56-4.8,10.94,0,3.32.89,5.95,2.67,7.9,1.78,1.94,4.21,2.92,7.29,2.92s5.87-.97,8.38-2.92Z"/>
  <path class="st0" d="M340.51,536.76c2.11-8.59,3.16-15.6,3.16-21.02,0-4.05-.24-7.11-.73-9.18-.49-2.07-1.14-3.46-1.94-4.19-.81-.73-1.99-1.38-3.52-1.94-1.46-.57-2.19-1.46-2.19-2.67,0-1.13.46-2.41,1.4-3.83.93-1.42,2.23-2.61,3.89-3.58,1.66-.97,3.46-1.46,5.41-1.46,4.94,0,7.41,3.44,7.41,10.33,1.54-3.4,3.38-6.02,5.53-7.84,2.15-1.82,4.8-2.73,7.96-2.73,2.35,0,4.21.51,5.59,1.52,1.38,1.01,2.07,2.57,2.07,4.68s-.71,4.23-2.13,6.14c-1.42,1.9-2.86,2.85-4.31,2.85-.73,0-1.3-.24-1.7-.73-1.05-1.3-2.35-1.94-3.89-1.94-2.43,0-4.54,1.58-6.32,4.74-1.78,3.16-2.71,7.37-2.8,12.64l.24,10.82c0,3.08-.85,5.57-2.55,7.47-1.7,1.9-3.93,2.86-6.68,2.86-3.08,0-4.38-.97-3.89-2.92Z"/>
  <path class="st0" d="M384.68,536.39c-2.23-2.35-3.34-5.75-3.34-10.21,0-3.16.45-6.4,1.34-9.72.89-3.4,1.34-6.16,1.34-8.26,0-3.56-1.09-5.87-3.28-6.93-1.14-.65-1.94-1.23-2.43-1.76-.49-.53-.73-1.16-.73-1.88,0-1.94,1.16-3.83,3.46-5.65,2.31-1.82,4.68-2.73,7.11-2.73,4.62,0,6.93,3.77,6.93,11.3,0,3.89-.61,8.1-1.82,12.64-.73,3.24-1.09,5.67-1.09,7.29,0,4.05,1.98,6.08,5.95,6.08,3.73,0,7.21-1.98,10.45-5.95,3.24-3.97,5.91-9.52,8.02-16.65l-.12-2.31c-.16-3.97.55-7.03,2.13-9.17,1.58-2.15,3.91-3.22,6.99-3.22,2.67,0,4.01.85,4.01,2.55,0,.89-.41,2.67-1.21,5.35-1.94,6.97-2.92,13.25-2.92,18.84,0,3.4.53,6.08,1.58,8.02,1.05,1.94,2.83,3.28,5.35,4.01.81.16,1.42.43,1.82.79.4.37.61,1.07.61,2.13,0,2.11-.87,4.05-2.61,5.83-1.74,1.78-4.03,2.67-6.86,2.67-5.92,0-8.87-4.17-8.87-12.52,0-1.46.12-3.65.37-6.56l-.24-.12c-2.51,6.4-5.67,11.28-9.48,14.64-3.81,3.36-8.14,5.04-13,5.04-4.05,0-7.19-1.18-9.42-3.52Z"/>
  <path class="st0" d="M444.65,536.76c2.1-8.59,3.16-15.6,3.16-21.02,0-4.05-.24-7.11-.73-9.18-.48-2.07-1.13-3.46-1.94-4.19-.81-.73-1.99-1.38-3.52-1.94-1.46-.57-2.19-1.46-2.19-2.67,0-1.13.46-2.41,1.4-3.83.93-1.42,2.23-2.61,3.89-3.58,1.66-.97,3.5-1.46,5.53-1.46,4.86,0,7.29,3.44,7.29,10.33,0,3.32-.61,7.86-1.82,13.61l.36.12c6.16-16.2,14.38-24.3,24.67-24.3,4.13,0,7.37,1.28,9.72,3.83,2.35,2.55,3.52,5.81,3.52,9.78,0,2.35-.57,5.31-1.7,8.87-.97,3.08-1.46,5.79-1.46,8.14,0,4.7,2.19,7.82,6.56,9.36,1.13.49,1.7,1.21,1.7,2.19s-.29,2.15-.85,3.52c-.57,1.38-1.52,2.59-2.86,3.65s-3.14,1.58-5.41,1.58c-3.16,0-5.65-1.14-7.47-3.4-1.82-2.27-2.73-5.22-2.73-8.87,0-2.75.69-6.72,2.07-11.91.89-3.89,1.34-6.44,1.34-7.65,0-3.73-1.94-5.59-5.83-5.59-4.54,0-8.43,2.33-11.67,6.99-3.24,4.66-5.87,10.43-7.9,17.32v2.92c0,3.08-.85,5.57-2.55,7.47-1.7,1.9-3.93,2.86-6.68,2.86-2.92,0-4.21-.97-3.89-2.92Z"/>
  <path class="st0" d="M510.15,535.3c-2.92-3.08-4.37-7.41-4.37-13s1.42-10.86,4.25-16.04c2.83-5.18,6.87-9.42,12.09-12.7,5.23-3.28,11.2-4.92,17.92-4.92,5.02,0,9.22.85,12.58,2.55,3.36,1.7,5.04,3.93,5.04,6.68,0,.89-.08,1.88-.24,2.98-.16,1.09-.36,2-.61,2.73-.65,1.7-1.58,2.55-2.8,2.55-.32,0-.93-.12-1.82-.36-.65,3.65-.97,6.93-.97,9.84,0,7.53,2.31,11.75,6.93,12.64.89.24,1.52.53,1.88.85.37.32.55.97.55,1.94,0,1.94-.67,3.89-2,5.83-1.34,1.94-3.55,2.92-6.62,2.92s-5.59-1.16-7.29-3.46c-1.7-2.31-2.55-5.61-2.55-9.9-2.27,4.13-5.13,7.41-8.57,9.84-3.44,2.43-7.31,3.64-11.6,3.64-4.94,0-8.87-1.54-11.79-4.62ZM534.21,524.36c2.51-1.94,4.5-4.54,5.95-7.78,1.62-3.4,2.63-7.82,3.04-13.25-3.08-1.46-6.52-2.19-10.33-2.19-4.94,0-9.01,1.46-12.21,4.37-3.2,2.92-4.8,6.56-4.8,10.94,0,3.32.89,5.95,2.67,7.9,1.78,1.94,4.21,2.92,7.29,2.92s5.87-.97,8.38-2.92Z"/>
  <path class="st0" d="M608.27,536.21c-2.96-2.47-4.44-6.14-4.44-11,0-2.19.41-5.91,1.21-11.18,1.46-8.91,2.19-16.81,2.19-23.7,0-5.26-.22-9.37-.67-12.33-.45-2.96-1.48-5.77-3.1-8.45-.81-1.3-1.21-2.23-1.21-2.8,0-.97.55-1.98,1.64-3.04,1.09-1.05,2.47-1.94,4.13-2.67,1.66-.73,3.22-1.09,4.68-1.09,2.59,0,4.27.97,5.04,2.92.77,1.94,1.15,5.19,1.15,9.72,0,2.43-.65,9.16-1.94,20.17-1.3,9.8-1.94,17.05-1.94,21.75,0,3.32.38,5.81,1.16,7.47.77,1.66,2.04,2.78,3.83,3.34,1.78.65,4.29.97,7.53.97,7.21,0,13.61-1.26,19.2-3.77.97-.32,1.62-.49,1.94-.49.81,0,1.52.47,2.13,1.4.61.93.91,2.17.91,3.71,0,3.57-1.94,6.36-5.83,8.38-5.19,2.92-12.32,4.37-21.39,4.37-7.86,0-13.27-1.23-16.22-3.71Z"/>
  <path class="st0" d="M659.61,535.3c-2.92-3.08-4.37-7.41-4.37-13s1.42-10.86,4.25-16.04c2.83-5.18,6.86-9.42,12.09-12.7,5.22-3.28,11.2-4.92,17.92-4.92,5.02,0,9.22.85,12.58,2.55,3.36,1.7,5.04,3.93,5.04,6.68,0,.89-.08,1.88-.24,2.98-.16,1.09-.37,2-.61,2.73-.65,1.7-1.58,2.55-2.8,2.55-.32,0-.93-.12-1.82-.36-.65,3.65-.97,6.93-.97,9.84,0,7.53,2.31,11.75,6.93,12.64.89.24,1.52.53,1.88.85.36.32.55.97.55,1.94,0,1.94-.67,3.89-2,5.83-1.34,1.94-3.55,2.92-6.62,2.92s-5.59-1.16-7.29-3.46c-1.7-2.31-2.55-5.61-2.55-9.9-2.27,4.13-5.12,7.41-8.57,9.84-3.44,2.43-7.31,3.64-11.6,3.64-4.94,0-8.87-1.54-11.79-4.62ZM683.67,524.36c2.51-1.94,4.5-4.54,5.95-7.78,1.62-3.4,2.63-7.82,3.04-13.25-3.08-1.46-6.52-2.19-10.33-2.19-4.94,0-9.01,1.46-12.21,4.37-3.2,2.92-4.8,6.56-4.8,10.94,0,3.32.89,5.95,2.67,7.9,1.78,1.94,4.21,2.92,7.29,2.92s5.87-.97,8.38-2.92Z"/>
  <path class="st0" d="M725.72,530.56c-.32-4.86-.99-9.8-2-14.82-1.01-5.02-2.17-8.63-3.46-10.82-.57-.89-1.22-1.56-1.94-2.01-.73-.44-1.74-.75-3.04-.91-.81-.08-1.38-.34-1.7-.79-.32-.44-.49-1.23-.49-2.37,0-3.08.85-5.47,2.55-7.17,1.7-1.7,3.77-2.55,6.2-2.55,4.37,0,7.45,2.59,9.23,7.78,1.78,5.19,2.67,11.71,2.67,19.56l-.12,7.05c0,.89.2,1.58.61,2.07.41.48,1.17.73,2.31.73,2.02,0,4.25-.51,6.68-1.52,2.43-1.01,4.5-2.63,6.2-4.86,1.7-2.23,2.55-5.04,2.55-8.45,0-1.78-.26-3.28-.79-4.5s-1.32-2.47-2.37-3.77c-.32-.41-.61-.81-.85-1.22-.24-.4-.37-.89-.37-1.46,0-2.02,1.16-3.6,3.46-4.74,2.31-1.13,4.51-1.7,6.62-1.7,1.05,0,1.88.29,2.49.85.61.57,1.07,1.58,1.4,3.04.65,2.19.97,4.78.97,7.78,0,3.57-.32,6.97-.97,10.21-.49,2.19-.73,4.42-.73,6.68,0,1.38.26,2.33.79,2.86.53.53,1.44.79,2.73.79,4.54,0,8.28-1.58,11.24-4.74,2.96-3.16,4.44-7.09,4.44-11.79,0-3.48-1.09-6.36-3.28-8.63-.89-1.05-1.48-1.8-1.76-2.25-.29-.44-.43-1.03-.43-1.76,0-1.38.65-2.69,1.94-3.95,1.29-1.25,2.87-2.27,4.74-3.04,1.86-.77,3.52-1.16,4.98-1.16,2.02,0,3.4.89,4.13,2.67.73,1.78,1.09,4.21,1.09,7.29,0,6.08-1.14,12.32-3.4,18.71-2.27,6.4-5.49,11.73-9.66,15.98-4.17,4.25-8.97,6.38-14.4,6.38-4.13,0-7.07-1.18-8.81-3.52s-2.49-5.47-2.25-9.36c-2.51,3.89-5.41,7.01-8.69,9.36s-6.62,3.52-10.03,3.52c-5.27,0-8.1-3.16-8.51-9.48Z"/>
</svg>