<?xml version="1.0" encoding="UTF-8"?>
<svg id="Layer_1" data-name="Layer 1" xmlns="http://www.w3.org/2000/svg" viewBox="0 0 1000 1000">
  <defs>
    <style>
      .cls-1 {
        fill: #db0000;
      }

      .cls-1, .cls-2, .cls-3, .cls-4 {
        stroke: #000;
        stroke-miterlimit: 10;
        stroke-width: 2px;
      }

      .cls-2 {
        fill: #2e3194;
      }

      .cls-3 {
        fill: #ffcb00;
      }

      .cls-4 {
        fill: none;
      }
    </style>
  </defs>
  <path class="cls-2" d="M796.4,496.66c-.01-1-.03-2-.06-2.99-.02-.72-.04-1.44-.07-2.16-.11-3.52-.3-7.01-.57-10.49-.11-1.57-.25-3.14-.4-4.7-.15-1.56-.31-3.12-.49-4.67,0-.06,0-.13-.02-.19-.22-1.93-.46-3.84-.73-5.75-.27-1.91-.55-3.82-.86-5.71-.31-1.9-.64-3.79-.99-5.68-.35-1.88-.72-3.75-1.12-5.61h0c-.37-1.76-.76-3.5-1.16-5.24-.61-2.6-1.26-5.19-1.95-7.76h0c-.66-2.48-1.37-4.94-2.1-7.38-.25-.81-.5-1.63-.75-2.44-.34-1.06-.68-2.13-1.03-3.19-32.45-98.8-125.45-170.13-235.11-170.14-61.43,0-117.6,22.51-160.87,59.57-3.47,3.29-6.83,6.69-10.06,10.23-26.17,28.62-43.95,65.03-49.46,105.36h0c-.09.72-.19,1.42-.28,2.13h0c-.17,1.42-.34,2.84-.49,4.27h0c-.07.72-.14,1.44-.21,2.15-.13,1.44-.25,2.87-.35,4.31-.05.72-.1,1.45-.14,2.17-.23,3.89-.35,7.82-.35,11.77,0,2.35.09,4.69.27,7,.06.74.12,1.47.19,2.2.15,1.45.32,2.9.54,4.34.21,1.43.46,2.86.74,4.27h0c.26,1.31.55,2.61.86,3.89.3,1.24.63,2.48.99,3.7,10.95,37.91,45.91,65.61,87.35,65.61,33.65,0,63.03-18.27,78.75-45.44.01-.01.02-.03.03-.04,31.38.04,61.9,16.34,78.73,45.48,25.11,43.5,10.2,99.12-33.29,124.22-.96.55-1.91,1.09-2.87,1.63-.98.55-1.96,1.08-2.95,1.6-5.83,3.11-11.75,5.9-17.73,8.36-2.01.82-4.02,1.61-6.04,2.37-.02.01-.05.01-.07.03-2.01.74-4.03,1.46-6.05,2.14-2.02.68-4.04,1.32-6.07,1.93-32.45,9.72-66.26,10.63-98.25,3.58-4.67-1.03-9.31-2.24-13.89-3.6-53.72-18.94-101.31-56.34-132.02-109.54-53.58-92.8-40.21-205.89,25.12-283.32.62-.74,1.25-1.47,1.88-2.2,1.26-1.46,2.54-2.91,3.84-4.34,1.58-1.74,3.18-3.46,4.81-5.15.54-.57,1.09-1.13,1.64-1.69.73-.75,1.47-1.49,2.21-2.23,1.54-1.54,3.11-3.06,4.7-4.56.79-.75,1.59-1.5,2.4-2.24,2.03-1.86,4.09-3.7,6.18-5.5,1.05-.9,2.11-1.79,3.17-2.68,1.07-.88,2.14-1.76,3.23-2.63,6.45-5.17,13.21-10.07,20.29-14.65,1.18-.77,2.38-1.54,3.58-2.28h0c1.21-.76,2.42-1.5,3.64-2.23.23-.14.45-.28.68-.41.38-.23.77-.46,1.16-.69.64-.39,1.29-.77,1.94-1.14.03-.02.05-.03.08-.05,143.46-82.77,326.86-33.62,409.68,109.83,26.71,46.28,39.66,96.69,40.16,146.57Z"/>
  <path class="cls-4" d="M500.16,687.81c-32.46,9.76-66.3,10.68-98.31,3.62-4.68-1.03-9.31-2.24-13.9-3.6-53.72-18.94-101.3-56.34-132.01-109.54-53.6-92.83-40.21-205.94,25.18-283.36-65.33,77.43-78.7,190.52-25.12,283.32,30.71,53.2,78.3,90.6,132.02,109.54,4.58,1.36,9.22,2.57,13.89,3.6,31.99,7.05,65.8,6.14,98.25-3.58Z"/>
  <path class="cls-4" d="M291.65,283.24c-1.63,1.69-3.23,3.41-4.81,5.15,1.57-1.74,3.17-3.46,4.81-5.15Z"/>
  <path class="cls-4" d="M308.78,267.02c-2.09,1.8-4.15,3.64-6.18,5.5,2.02-1.87,4.08-3.71,6.18-5.5Z"/>
  <path class="cls-4" d="M787.98,435.7c-28.34-105.44-124.59-183.06-238.98-183.06-61.43,0-117.62,22.51-160.87,59.56-3.48,3.29-6.84,6.7-10.06,10.23-26.16,28.61-43.94,64.99-49.47,105.29,5.51-40.33,23.29-76.74,49.46-105.36,3.23-3.54,6.59-6.94,10.06-10.23,43.27-37.06,99.44-59.57,160.87-59.57,114.41.01,210.69,77.66,238.99,183.14Z"/>
  <path class="cls-4" d="M512.28,683.74c-2.01.75-4.03,1.46-6.05,2.14,2.02-.68,4.04-1.4,6.05-2.14Z"/>
  <path class="cls-4" d="M518.39,681.34c-2,.83-4.02,1.62-6.04,2.37,2.02-.76,4.03-1.55,6.04-2.37Z"/>
  <path class="cls-1" d="M684.49,669.19c-53.45,92.59-157.72,137.56-257.24,120.03h0c-1.28-.23-2.55-.46-3.83-.7-.01-.01-.02-.01-.03-.01-.15-.02-.3-.05-.45-.09-1.13-.21-2.26-.44-3.39-.68t-.02,0c-.81-.16-1.61-.33-2.41-.52-.48-.1-.97-.21-1.45-.32-.38-.09-.77-.17-1.15-.27-.6-.13-1.19-.27-1.79-.42,0,0-.01.01-.01,0-.77-.18-1.54-.37-2.31-.57-.81-.19-1.62-.4-2.43-.61t-.02-.01c-.89-.22-1.77-.46-2.65-.7t-.02-.01c-1.78-.48-3.55-.98-5.31-1.51,0-.01-.01-.01-.02-.01-.5-.14-1-.29-1.49-.45-.66-.2-1.33-.41-1.99-.61-1.5-.47-2.98-.95-4.47-1.45-.88-.29-1.76-.59-2.63-.89t0-.01c-.88-.3-1.76-.61-2.63-.93-.88-.31-1.76-.63-2.63-.96-1.32-.5-2.65-1.01-3.96-1.52-1.27-.5-2.54-1.01-3.81-1.53-6.27-2.58-12.48-5.44-18.61-8.58-1.13-.57-2.26-1.16-3.38-1.76-.55-.29-1.11-.59-1.66-.88-.13-.07-.26-.14-.39-.21-.68-.37-1.36-.75-2.04-1.13-1.23-.67-2.45-1.37-3.67-2.07,0,0-.01,0-.01,0-.02-.01-.05-.03-.07-.04-143.42-82.85-192.55-266.25-109.73-409.7,26.53-45.94,63.38-82.16,105.93-107.5-1.22.73-2.43,1.47-3.64,2.22h0c-1.2.75-2.4,1.52-3.58,2.29-7.08,4.58-13.84,9.48-20.29,14.65-1.08.86-2.16,1.74-3.23,2.63-1.06.89-2.12,1.78-3.17,2.68-2.1,1.79-4.16,3.63-6.18,5.5-.81.74-1.61,1.49-2.4,2.24-1.59,1.5-3.16,3.02-4.7,4.56-.74.74-1.48,1.48-2.21,2.23-.55.56-1.1,1.12-1.64,1.69-1.64,1.69-3.24,3.41-4.81,5.15-1.3,1.43-2.58,2.88-3.84,4.34-.63.73-1.26,1.46-1.88,2.2-65.39,77.42-78.78,190.53-25.18,283.36,30.71,53.2,78.29,90.6,132.01,109.54,4.59,1.36,9.22,2.57,13.9,3.6,32.01,7.06,65.85,6.14,98.31-3.62,2.03-.61,4.05-1.25,6.07-1.93,2.02-.68,4.04-1.39,6.05-2.14.02-.02.05-.02.07-.03,2.02-.75,4.04-1.54,6.04-2.37,5.98-2.46,11.9-5.25,17.73-8.36.99-.52,1.97-1.05,2.95-1.6.98-.54,1.96-1.1,2.94-1.66,43.49-25.11,58.39-80.73,33.28-124.23-16.82-29.14-47.34-45.45-78.73-45.48h-.05c-15.66-27.2-16.79-61.78.03-90.92,18.05-31.27,51.87-47.76,85.62-45.24.56.04,1.13.09,1.69.14,1.03.1,2.06.21,3.09.35.66.08,1.31.17,1.97.27.47.07.93.14,1.39.23,1.26.21,2.51.45,3.76.71.99.21,1.99.43,2.98.68.6.15,1.21.3,1.81.47,1.01.27,2.02.56,3.02.87.77.23,1.54.48,2.31.74,4.69,1.57,9.31,3.56,13.81,5.96.46.25.93.5,1.39.75.44.25.87.5,1.31.75,1.38.8,2.74,1.61,4.1,2.43.02.01.04.02.06.03,1.33.81,2.65,1.63,3.95,2.48.03.02.05.03.07.04.98.63,1.95,1.27,2.92,1.91h.01c.96.66,1.92,1.31,2.87,1.97.64.44,1.29.89,1.92,1.35.02.02.04.03.06.04,2.52,1.8,4.99,3.65,7.4,5.54.02.02.04.04.06.04,1.97,1.55,3.91,3.13,5.81,4.76h0c.94.8,1.88,1.62,2.81,2.45h0c1.69,1.49,3.34,3.01,4.97,4.56h.01c2.44,2.32,4.81,4.69,7.11,7.11.77.81,1.53,1.62,2.28,2.44,19.56,21.31,33.87,46.43,42.39,73.34,1.44,4.56,2.72,9.17,3.83,13.83,10.46,55.99,1.86,115.9-28.85,169.1Z"/>
  <path class="cls-4" d="M401.85,691.43c-4.68-1.03-9.31-2.24-13.9-3.6-53.72-18.94-101.3-56.34-132.01-109.54-53.6-92.83-40.21-205.94,25.18-283.36-65.33,77.43-78.7,190.52-25.12,283.32,30.71,53.2,78.3,90.6,132.02,109.54,4.58,1.36,9.22,2.57,13.89,3.6,31.99,7.05,65.8,6.14,98.25-3.58-32.46,9.76-66.3,10.68-98.31,3.62Z"/>
  <path class="cls-4" d="M291.65,283.24c-1.63,1.69-3.23,3.41-4.81,5.15,1.57-1.74,3.17-3.46,4.81-5.15Z"/>
  <path class="cls-4" d="M308.78,267.02c-2.09,1.8-4.15,3.64-6.18,5.5,2.02-1.87,4.08-3.71,6.18-5.5Z"/>
  <path class="cls-4" d="M415.66,786.89c.48.11.97.22,1.45.32-.48-.1-.96-.2-1.44-.31h-.01Z"/>
  <path class="cls-4" d="M423.41,788.52c1.28.24,2.55.47,3.83.7-.31-.05-.62-.1-.92-.16-.97-.17-1.94-.35-2.91-.54Z"/>
  <path class="cls-4" d="M427.25,789.22c2.89.51,5.79.96,8.69,1.36-1.32-.18-2.63-.36-3.95-.56-.67-.11-1.34-.21-2.01-.33-.45-.07-.91-.14-1.36-.23-.46-.07-.91-.15-1.37-.24Z"/>
  <path class="cls-4" d="M684.55,669.22c-46.39,80.35-131.04,124.85-217.66,123.74-.62-.01-1.25-.02-1.87-.04-.46,0-.92-.01-1.39-.03-.77-.01-1.54-.04-2.31-.07-1.04-.03-2.08-.08-3.13-.13-1.11-.05-2.23-.11-3.35-.18-.3-.02-.59-.04-.89-.06-.94-.06-1.88-.13-2.81-.2-1.57-.12-3.14-.26-4.71-.41-1.18-.11-2.36-.23-3.54-.36l-.21-.03c-.97-.1-1.94-.22-2.91-.34-.52-.06-1.04-.13-1.56-.2-.49-.06-.99-.14-1.48-.21,96.6,13.15,196-31.85,247.76-121.51,30.71-53.2,39.31-113.11,28.85-169.1-1.11-4.66-2.39-9.27-3.83-13.83-8.52-26.91-22.83-52.03-42.39-73.34.46.49.91.98,1.35,1.48.85.93,1.68,1.87,2.49,2.81.48.56.97,1.12,1.44,1.69.23.25.44.51.65.76.55.66,1.11,1.33,1.64,2,.52.62,1.02,1.24,1.5,1.86.41.5.8,1,1.19,1.5.27.35.54.69.8,1.03.48.62.95,1.25,1.42,1.88.13.16.24.32.36.48.53.71,1.05,1.42,1.56,2.13.14.19.27.37.4.55.6.84,1.2,1.68,1.79,2.53.62.9,1.24,1.81,1.85,2.72.2.29.39.58.58.88.55.81,1.08,1.62,1.59,2.44,1.03,1.6,2.04,3.21,3.01,4.84.03.06.07.11.1.17,1.12,1.86,2.21,3.75,3.26,5.65.02.04.04.08.06.11.5.9.99,1.8,1.47,2.71.4.74.78,1.47,1.16,2.21.33.61.64,1.24.95,1.86.31.61.62,1.23.92,1.85.41.83.81,1.66,1.21,2.5.18.38.36.76.53,1.14.31.67.62,1.34.92,2.01.07.14.13.28.19.42.33.74.66,1.48.98,2.22.55,1.27,1.09,2.54,1.61,3.82.39.94.76,1.88,1.13,2.83.24.6.47,1.2.69,1.8.24.6.46,1.2.68,1.8.31.84.61,1.67.91,2.51.36,1.02.71,2.05,1.06,3.08.02.07.04.13.07.2.31.95.62,1.9.92,2.85.01.02.01.03.02.05,1.44,4.57,2.71,9.18,3.82,13.83,10.46,56,1.87,115.9-28.85,169.1Z"/>
  <path class="cls-4" d="M435.94,790.58c.27.04.53.08.8.11-.27-.04-.53-.08-.8-.11Z"/>
  <path class="cls-4" d="M512.28,683.74c-2.01.75-4.03,1.46-6.05,2.14,2.02-.68,4.04-1.4,6.05-2.14Z"/>
  <path class="cls-4" d="M518.39,681.34c-2,.83-4.02,1.62-6.04,2.37,2.02-.76,4.03-1.55,6.04-2.37Z"/>
  <path class="cls-4" d="M620.69,375.77c-.44-.25-.87-.5-1.31-.75.46.26.92.52,1.38.78,1.36.78,2.7,1.58,4.03,2.4-1.36-.82-2.72-1.63-4.1-2.43Z"/>
  <path class="cls-4" d="M644.05,391.56c-2.41-1.89-4.88-3.74-7.4-5.54,2.52,1.79,4.99,3.64,7.4,5.54Z"/>
  <path class="cls-4" d="M661.39,406.94s-.08-.08-.12-.12c.04.04.08.08.12.12Z"/>
  <path class="cls-4" d="M657.73,403.37c1.2,1.14,2.38,2.29,3.54,3.45-1.16-1.16-2.34-2.31-3.54-3.45Z"/>
  <path class="cls-4" d="M664.57,410.19c.1.1.19.19.27.29-1.13-1.19-2.28-2.37-3.45-3.54.28.28.56.55.84.84.64.65,1.27,1.3,1.9,1.95.16.15.3.31.44.46Z"/>
  <path class="cls-4" d="M666.65,412.4c.16.17.32.35.47.52-.75-.82-1.51-1.63-2.28-2.44h.01c.61.64,1.21,1.28,1.8,1.92Z"/>
  <path class="cls-3" d="M796.42,499.71v.28c0,165.66-134.29,299.95-299.94,299.95-52.13,0-101.11-13.33-143.8-36.73.55.29,1.11.59,1.66.88,1.12.6,2.25,1.19,3.38,1.76,6.13,3.14,12.34,6,18.61,8.58,1.27.53,2.54,1.04,3.81,1.53,1.31.51,2.64,1.02,3.96,1.52.87.33,1.75.65,2.63.96.87.32,1.75.63,2.63.93t0,.01c.87.3,1.75.6,2.63.89,1.49.5,2.97.98,4.47,1.45.66.2,1.33.41,1.99.61.49.16.99.31,1.49.45.01,0,.02,0,.02.01,1.76.53,3.53,1.03,5.31,1.51t.02.01c.88.24,1.76.48,2.65.7t.02.01c.81.21,1.62.42,2.43.61.77.2,1.54.39,2.31.57,0,.01.01,0,.01,0,.6.15,1.19.29,1.79.42.38.1.77.18,1.15.27h.01c.48.12.96.22,1.44.32.8.19,1.6.36,2.41.52t.02,0c1.13.24,2.26.47,3.39.68.15.04.3.07.45.09.01,0,.02,0,.03.01.97.19,1.94.37,2.91.54.31.06.61.11.92.16h0c.46.09.91.17,1.37.24.45.09.91.16,1.36.23.67.12,1.34.23,2.01.33,2.07.32,4.15.62,6.22.89.52.07,1.04.14,1.56.2.97.12,1.94.23,2.91.34l.21.03c1.18.13,2.36.25,3.54.36,1.57.15,3.14.29,4.71.41.93.07,1.87.14,2.81.2.3.02.59.04.89.06,1.11.07,2.23.13,3.35.18,1.05.05,2.09.1,3.13.13.77.03,1.54.06,2.31.07.47.02.93.03,1.39.03.63.02,1.25.03,1.87.04,86.62,1.11,171.27-43.39,217.66-123.74,30.72-53.2,39.31-113.1,28.85-169.1-1.11-4.65-2.38-9.26-3.82-13.83-.01-.02-.01-.03-.02-.05-.3-.95-.61-1.91-.92-2.85-.03-.07-.05-.13-.07-.2-.34-1.03-.7-2.06-1.06-3.08-.3-.84-.6-1.67-.91-2.51-.22-.6-.44-1.2-.68-1.8-.22-.6-.45-1.2-.69-1.8-.36-.95-.74-1.89-1.13-2.83-.52-1.28-1.06-2.55-1.61-3.82-.32-.75-.64-1.49-.98-2.22-.06-.14-.12-.28-.19-.42-.3-.68-.6-1.34-.92-2.01-.17-.38-.35-.76-.53-1.14-.39-.84-.8-1.67-1.21-2.5-.3-.62-.6-1.24-.92-1.85-.31-.62-.63-1.24-.95-1.86-.38-.74-.76-1.47-1.16-2.21-.48-.91-.97-1.81-1.47-2.71-.02-.03-.04-.07-.06-.11-1.05-1.9-2.14-3.79-3.26-5.65-.03-.06-.07-.11-.1-.17-.97-1.63-1.98-3.24-3.01-4.84-.51-.82-1.04-1.63-1.59-2.44-.18-.29-.38-.59-.58-.88-.61-.92-1.22-1.82-1.85-2.72-.59-.85-1.18-1.69-1.79-2.53-.13-.18-.26-.36-.4-.55-.51-.71-1.03-1.42-1.56-2.13-.12-.16-.23-.32-.36-.48-.47-.63-.94-1.26-1.42-1.88-.26-.34-.53-.68-.8-1.03-.39-.5-.79-1-1.19-1.5-.48-.62-.98-1.24-1.5-1.86-.53-.67-1.08-1.34-1.64-2-.21-.25-.42-.51-.65-.76-.47-.57-.95-1.13-1.44-1.69-.81-.94-1.64-1.88-2.49-2.81-.44-.5-.89-.99-1.35-1.48-.15-.17-.31-.35-.47-.52-.59-.64-1.19-1.28-1.8-1.92h-.01c-.08-.1-.17-.19-.27-.29-.14-.15-.28-.31-.44-.46-.63-.66-1.26-1.31-1.9-1.95-1.47-1.5-2.97-2.96-4.5-4.41h-.01c-1.63-1.55-3.28-3.07-4.97-4.56h0c-.93-.83-1.87-1.65-2.81-2.45h0c-1.9-1.63-3.84-3.21-5.81-4.76-.02,0-.04-.02-.06-.04-2.41-1.9-4.88-3.75-7.4-5.54-.02-.01-.04-.02-.06-.04-.63-.46-1.28-.91-1.92-1.35-.95-.66-1.91-1.31-2.87-1.96h-.01c-.97-.65-1.94-1.29-2.92-1.92-.02-.01-.04-.02-.07-.04-1.3-.85-2.62-1.67-3.95-2.48-.02-.01-.04-.02-.06-.03-1.33-.82-2.67-1.62-4.03-2.4-.46-.26-.92-.52-1.38-.78-.46-.25-.93-.5-1.39-.75-4.5-2.4-9.12-4.39-13.81-5.96-.77-.26-1.54-.51-2.31-.74-1-.31-2.01-.6-3.02-.87-.6-.17-1.21-.32-1.81-.47-.99-.25-1.99-.47-2.98-.68-1.25-.27-2.5-.51-3.76-.71-.46-.09-.92-.16-1.39-.23-.66-.1-1.31-.19-1.97-.27-1.03-.14-2.06-.26-3.09-.35-.56-.06-1.13-.11-1.69-.14-33.78-2.58-67.63,13.91-85.69,45.2-16.82,29.14-15.69,63.72-.02,90.92.01.02.01.03.02.05-15.72,27.16-45.1,45.44-78.75,45.44-41.42,0-76.35-27.69-87.35-65.54-.36-1.23-.69-2.46-.99-3.7-.31-1.28-.6-2.58-.86-3.88h0c-.28-1.42-.52-2.85-.74-4.28-.21-1.44-.39-2.88-.54-4.34-.07-.73-.13-1.46-.19-2.2-.18-2.31-.27-4.65-.27-7,0-3.95.12-7.88.35-11.77.04-.72.09-1.45.14-2.17.1-1.44.22-2.87.35-4.31.07-.71.14-1.43.21-2.14h0c.15-1.44.32-2.86.49-4.27h0c.09-.72.19-1.42.28-2.13h0c5.53-40.31,23.31-76.69,49.47-105.3,3.22-3.53,6.58-6.94,10.06-10.23,43.25-37.05,99.44-59.56,160.87-59.56,109.64,0,202.61,71.3,235.1,170.06.35,1.06.69,2.12,1.03,3.19.25.81.5,1.63.75,2.44.73,2.44,1.44,4.9,2.1,7.37h0c.69,2.58,1.34,5.17,1.95,7.77.4,1.74.79,3.48,1.16,5.23h0c.39,1.87.76,3.74,1.12,5.62.35,1.89.68,3.78.99,5.68.31,1.89.59,3.8.86,5.71.27,1.91.51,3.82.73,5.75.01.06.02.13.02.19.18,1.55.34,3.11.49,4.67.15,1.56.29,3.13.4,4.7.27,3.48.46,6.97.57,10.49.03.72.05,1.44.07,2.16.03.99.05,1.99.06,2.99v.2c.01.95.02,1.9.02,2.85Z"/>
  <path class="cls-4" d="M787.98,435.7c-28.34-105.44-124.59-183.06-238.98-183.06-61.43,0-117.62,22.51-160.87,59.56-3.48,3.29-6.84,6.7-10.06,10.23-26.16,28.61-43.94,64.99-49.47,105.29,5.51-40.33,23.29-76.74,49.46-105.36,3.23-3.54,6.59-6.94,10.06-10.23,43.27-37.06,99.44-59.57,160.87-59.57,114.41.01,210.69,77.66,238.99,183.14Z"/>
  <path class="cls-4" d="M415.66,786.89c.48.11.97.22,1.45.32-.48-.1-.96-.2-1.44-.31-.38-.09-.77-.18-1.16-.28.38.1.77.18,1.15.27Z"/>
  <path class="cls-4" d="M427.24,789.22s0,0,0,0h0c-.31-.05-.62-.1-.92-.16-.97-.17-1.94-.35-2.91-.54,1.28.24,2.55.47,3.83.7Z"/>
  <path class="cls-4" d="M427.25,789.22c2.89.51,5.79.96,8.69,1.36-1.32-.18-2.63-.36-3.95-.56-.67-.11-1.34-.21-2.01-.33-.45-.07-.91-.14-1.36-.23-.46-.07-.92-.16-1.38-.24h0Z"/>
  <path class="cls-4" d="M435.94,790.58c.27.04.53.08.8.11-.27-.04-.53-.08-.8-.11Z"/>
  <path class="cls-4" d="M684.55,669.22c-46.39,80.35-131.04,124.85-217.66,123.74-.62-.01-1.25-.02-1.87-.04-.46,0-.92-.01-1.39-.03-.77-.01-1.54-.04-2.31-.07-1.04-.03-2.08-.08-3.13-.13-1.11-.05-2.23-.11-3.35-.18-.3-.02-.59-.04-.89-.06-.94-.06-1.88-.13-2.81-.2-1.57-.12-3.14-.26-4.71-.41-1.18-.11-2.36-.23-3.54-.36l-.21-.03c-.97-.1-1.94-.22-2.91-.34-.52-.06-1.04-.13-1.56-.2-.49-.06-.99-.14-1.48-.21,96.6,13.15,196-31.85,247.76-121.51,30.71-53.2,39.31-113.11,28.85-169.1-1.11-4.66-2.39-9.27-3.83-13.83-8.52-26.91-22.83-52.03-42.39-73.34-.75-.82-1.51-1.63-2.28-2.44-1.13-1.19-2.28-2.37-3.45-3.54.28.28.56.55.84.84.64.65,1.27,1.3,1.9,1.95.16.15.3.31.44.46.1.09.19.19.28.29.61.64,1.21,1.28,1.8,1.92.62.66,1.23,1.33,1.82,2,.85.93,1.68,1.87,2.49,2.81.48.56.97,1.12,1.44,1.69.23.25.44.51.65.76.55.66,1.11,1.33,1.64,2,.52.62,1.02,1.24,1.5,1.86.41.5.8,1,1.19,1.5.27.35.54.69.8,1.03.48.62.95,1.25,1.42,1.88.13.16.24.32.36.48.53.71,1.05,1.42,1.56,2.13.14.19.27.37.4.55.6.84,1.2,1.68,1.79,2.53.62.9,1.24,1.81,1.85,2.72.2.29.39.58.58.88.55.81,1.08,1.62,1.59,2.44,1.03,1.6,2.03,3.21,3.01,4.84.03.06.07.11.1.17,1.12,1.87,2.21,3.75,3.26,5.65.02.04.04.08.06.11.5.9.99,1.8,1.47,2.71.4.74.78,1.47,1.16,2.21.33.61.64,1.24.95,1.86.31.61.62,1.23.92,1.85.41.83.81,1.66,1.21,2.5.18.38.36.76.53,1.14.31.67.62,1.34.92,2.01.07.14.13.28.19.42.33.74.66,1.48.98,2.22.55,1.27,1.09,2.54,1.61,3.82.39.94.76,1.88,1.13,2.83.24.6.47,1.2.69,1.8.24.6.46,1.2.68,1.8.31.84.61,1.67.91,2.51.36,1.02.71,2.05,1.06,3.08.02.07.04.13.07.2.31.95.62,1.9.92,2.85.01.02.01.03.02.05,1.44,4.57,2.71,9.18,3.82,13.83,10.46,56,1.87,115.9-28.85,169.1Z"/>
  <path class="cls-4" d="M657.73,403.37c1.2,1.14,2.38,2.29,3.54,3.45-1.16-1.16-2.34-2.31-3.54-3.45Z"/>
  <path class="cls-4" d="M661.39,406.94s-.08-.08-.12-.12c.04.04.08.08.12.12Z"/>
  <path class="cls-4" d="M624.79,378.2c-1.36-.82-2.72-1.63-4.1-2.43-.44-.25-.87-.5-1.31-.75.46.26.92.52,1.38.78,1.36.78,2.7,1.58,4.03,2.4Z"/>
  <path class="cls-4" d="M644.05,391.56c-2.41-1.89-4.88-3.74-7.4-5.54,2.52,1.79,4.99,3.64,7.4,5.54Z"/>
</svg>