<?xml version="1.0" encoding="UTF-8"?>
<svg id="Layer_2" data-name="Layer 2" xmlns="http://www.w3.org/2000/svg" viewBox="0 0 1000 1000">
  <defs>
    <style>
      .cls-1 {
        fill: #db0000;
      }

      .cls-2 {
        fill: #ffcb00;
      }

      .cls-3 {
        fill: #e6ac00;
      }

      .cls-4 {
        fill: #0f2559;
      }

      .cls-5 {
        fill: #a01d13;
      }

      .cls-6 {
        fill: #59250f;
      }

      .cls-7 {
        fill: #ba7600;
      }
    </style>
  </defs>
  <path class="cls-4" d="M391.65,312.2c43.26-37.06,99.44-59.56,160.87-59.56,136.65,0,247.43,110.78,247.43,247.43.05-50.98-12.86-102.64-40.19-149.98-82.83-143.46-266.27-192.61-409.74-109.78-.03.02-.07.05-.1.07-118.26,68.36-158.76,219.62-90.45,337.93,30.71,53.2,78.3,90.6,132.02,109.53,4.58,1.36,9.21,2.57,13.89,3.6,46.1,10.16,95.98,3.8,140.1-21.67,43.49-25.11,58.4-80.72,33.28-124.22-16.82-29.14-47.34-45.45-78.73-45.48,0,.02-.02.03-.02.05-15.72,27.17-45.1,45.44-78.75,45.44-50.23,0-90.94-40.72-90.94-90.94s19.43-97.32,51.28-132.16c3.23-3.53,6.59-6.94,10.06-10.23Z"/>
  <path class="cls-6" d="M391.54,687.78c-53.72-18.93-101.3-56.34-132.02-109.53-68.32-118.34-27.78-269.67,90.56-337.99-44.18,25.45-82.46,62.46-109.79,109.79-82.83,143.46-33.67,326.91,109.79,409.74.03.02.07.04.11.06,118.33,68.24,269.57,27.68,337.88-90.63,30.71-53.2,39.31-113.11,28.85-169.1-1.11-4.65-2.38-9.26-3.83-13.83-14.25-45-44.7-85.02-88.82-110.49-43.49-25.11-99.11-10.21-124.22,33.29-16.82,29.14-15.69,63.72-.03,90.92.02,0,.03,0,.05,0,31.39.03,61.9,16.34,78.73,45.48,25.11,43.5,10.21,99.11-33.29,124.22-44.11,25.47-94,31.83-140.1,21.67-4.67-1.03-9.3-2.23-13.89-3.6Z"/>
  <path class="cls-5" d="M678.62,457.34c6.37,11.03,11.56,22.8,15.41,34.99,1.23,3.87,2.34,7.89,3.33,11.96,9.82,53.2.38,108.2-26.6,154.93-30.37,52.59-79.39,90.22-138.04,105.95-58.65,15.73-119.92,7.69-172.52-22.65l-.42-.23c-42.42-24.57-77.71-59.84-102.06-102.02-15.62-27.06-26.59-56.56-32.51-87.09,4.74,11.92,10.4,23.64,17,35.08,31.84,55.14,82.51,97.19,142.69,118.4l.46.16.47.14c5.05,1.51,10.2,2.84,15.3,3.97,52.75,11.63,107.59,3.15,154.4-23.88,52.98-30.59,71.19-98.57,40.61-151.54-12.65-21.91-32.32-38.52-55.21-47.62-26.91-10.7-38.11-43-23.86-68.21.11-.19.21-.38.32-.57,9.47-16.41,24.77-28.15,43.08-33.05,18.3-4.9,37.42-2.39,53.82,7.09,26.75,15.44,49,37.65,64.34,64.22Z"/>
  <path class="cls-1" d="M661.3,467.34c5.65,9.78,10.25,20.22,13.66,31.02,1.03,3.26,1.98,6.65,2.83,10.09,8.79,48.35.15,98.32-24.35,140.76-27.7,47.97-72.41,82.29-125.9,96.63-53.49,14.35-109.37,7.01-157.35-20.66l-.48-.27c-4.33-2.51-8.58-5.14-12.74-7.88,6.96,3.1,14.06,5.92,21.28,8.47l.93.33.94.28c5.52,1.65,11.14,3.1,16.71,4.33,57.64,12.71,117.56,3.44,168.71-26.09,62.53-36.1,84.03-116.34,47.93-178.86-14.73-25.52-37.76-45.15-64.68-56-15.79-6.37-22.71-24.97-14.4-39.83.11-.19.22-.38.33-.57,6.8-11.78,17.79-20.21,30.93-23.73,13.14-3.52,26.86-1.71,38.64,5.09,23.71,13.69,43.43,33.37,57.02,56.9Z"/>
  <path class="cls-7" d="M716.86,500.09c10.46,55.99,1.86,115.9-28.85,169.1-68.32,118.34-219.65,158.89-337.99,90.56,44.13,25.54,95.32,40.18,149.98,40.19,165.66,0,299.94-134.29,299.95-299.95,0-.04,0-.08,0-.12-.07-136.59-110.81-247.29-247.42-247.3-61.43,0-117.61,22.51-160.87,59.56-3.47,3.29-6.83,6.7-10.06,10.23-31.85,34.84-51.28,81.23-51.28,132.16,0,50.22,40.71,90.93,90.94,90.93,33.65,0,63.03-18.28,78.75-45.44,0-.01-.02-.03-.03-.04-15.67-27.2-16.8-61.78.02-90.92,25.11-43.5,80.73-58.4,124.22-33.29,44.11,25.47,74.57,65.49,88.82,110.49,1.44,4.56,2.72,9.17,3.83,13.83Z"/>
  <path class="cls-3" d="M373.75,366.69c6.37-11.03,13.97-21.41,22.59-30.84,2.74-3,5.66-5.97,8.69-8.86,41.16-35.1,93.52-54.43,147.48-54.43,60.73,0,117.83,23.64,160.78,66.57,42.95,42.93,66.62,100.01,66.65,160.73v.48c-.06,49.03-12.96,97.22-37.32,139.4-15.62,27.06-35.69,51.3-59.17,71.7,7.96-10.07,15.28-20.82,21.88-32.26,31.84-55.14,42.91-120.05,31.19-182.77l-.09-.48-.11-.48c-1.22-5.13-2.64-10.25-4.22-15.23-16.31-51.5-51.07-94.75-97.88-121.78-52.98-30.59-120.96-12.37-151.54,40.61-12.65,21.91-17.2,47.25-13.64,71.63,4.19,28.66-18.18,54.5-47.14,54.77-.22,0-.44,0-.65,0-18.95,0-36.76-7.38-50.16-20.78-13.4-13.4-20.77-31.21-20.77-50.16,0-30.89,8.11-61.26,23.45-87.83Z"/>
  <path class="cls-2" d="M391.07,376.69c5.65-9.78,12.39-18.98,20.03-27.34,2.3-2.52,4.77-5.04,7.33-7.49,37.48-31.79,85.07-49.29,134.08-49.29,55.39,0,107.47,21.57,146.64,60.72,39.17,39.15,60.76,91.22,60.79,146.6v.55c0,5-.16,10-.45,14.97-.8-7.57-1.9-15.13-3.31-22.67l-.18-.97-.23-.95c-1.33-5.6-2.88-11.2-4.61-16.64-17.82-56.27-55.8-103.53-106.95-133.06-62.53-36.1-142.76-14.6-178.86,47.93-14.73,25.52-20.22,55.27-16.16,84.01,2.38,16.86-10.27,32.15-27.29,32.38-.22,0-.44,0-.66,0-13.61,0-26.4-5.3-36.02-14.92-9.62-9.62-14.92-22.41-14.92-36.01,0-27.38,7.18-54.3,20.77-77.83Z"/>
</svg>