<?xml version="1.0" encoding="UTF-8"?>
<svg id="Layer_1" data-name="Layer 1" xmlns="http://www.w3.org/2000/svg" viewBox="0 0 3386 2257.33">
  <defs>
    <style>
      .cls-1 {
        fill: #e2a86a;
      }

      .cls-2 {
        stroke: #6e3b20;
        stroke-miterlimit: 10;
      }

      .cls-2, .cls-3, .cls-4, .cls-5, .cls-6, .cls-7 {
        fill: none;
        stroke-linecap: round;
      }

      .cls-2, .cls-4, .cls-7 {
        stroke-width: 12px;
      }

      .cls-3, .cls-4 {
        stroke: #0e2b38;
      }

      .cls-3, .cls-4, .cls-5, .cls-6, .cls-7 {
        stroke-linejoin: round;
      }

      .cls-3, .cls-6 {
        stroke-width: 10px;
      }

      .cls-8 {
        fill: #fafcfc;
      }

      .cls-5 {
        stroke: #173947;
        stroke-width: 9px;
      }

      .cls-6 {
        stroke: #fff;
      }

      .cls-9 {
        fill: #173947;
      }

      .cls-7 {
        stroke: #edb06f;
      }

      .cls-10 {
        fill: #efcc93;
      }

      .cls-11 {
        fill: #c8cece;
      }
    </style>
  </defs>
  <g>
    <rect class="cls-1" x="2257.33" y="1128.66" width="1128.66" height="1128.66"/>
    <rect class="cls-9" x="0" y="1128.66" width="1128.66" height="1128.66"/>
    <rect class="cls-8" x="1128.66" y="1128.66" width="1128.66" height="1128.66"/>
    <rect class="cls-11" x="1128.65" y="0" width="1128.66" height="1128.66"/>
    <rect class="cls-9" x="2257.33" y="0" width="1128.66" height="1128.66"/>
    <rect class="cls-10" x="0" y="0" width="1128.66" height="1128.66"/>
  </g>
  <g>
    <path class="cls-4" d="M2635.36,1693c-28.11-38.25-44.67-85.47-44.67-136.53,0-127.58,103.41-230.97,230.97-230.97s230.97,103.39,230.97,230.97c0,51.06-16.57,98.28-44.67,136.53-9.57,13.08-20.51,25.09-32.58,35.85-11.74,10.51-24.58,19.81-38.29,27.74-13.78,7.97-28.44,14.54-43.83,19.52-22.54,7.37-46.6,11.33-71.59,11.33"/>
    <path class="cls-4" d="M2667.95,1657.15c-18.99-28.91-30.04-63.5-30.04-100.68,0-101.48,82.27-183.75,183.75-183.75s183.75,82.27,183.75,183.75c0,37.18-11.05,71.78-30.04,100.68-8.66,13.24-19.01,25.29-30.73,35.85-12.15,10.96-25.75,20.3-40.51,27.72-24.82,12.48-52.83,19.5-82.47,19.5"/>
    <path class="cls-4" d="M2706.24,1629.41c-13.37-21.11-21.11-46.11-21.11-72.95,0-75.41,61.12-136.53,136.53-136.53s136.53,61.12,136.53,136.53c0,26.83-7.74,51.84-21.11,72.95-8.77,13.84-19.96,26.01-32.97,35.87-22.91,17.41-51.47,27.72-82.45,27.72"/>
    <path class="cls-4" d="M2821.66,1645.77c29.28,0,55.27-14.1,71.57-35.89,11.15-14.91,17.74-33.38,17.74-53.42,0-49.34-39.99-89.31-89.31-89.31s-89.31,39.97-89.31,89.31c0,20.04,6.59,38.52,17.74,53.42"/>
    <circle class="cls-4" cx="2821.66" cy="1556.46" r="42.09" transform="translate(653.44 3940.39) rotate(-76.59)"/>
    <path class="cls-4" d="M3007.96,1693c28.11,38.23,44.67,85.45,44.67,136.53,0,127.56-103.41,230.97-230.97,230.97s-230.97-103.41-230.97-230.97c0-51.08,16.57-98.3,44.67-136.53,9.57-13.08,20.51-25.09,32.58-35.85,11.74-10.51,24.58-19.81,38.29-27.74,13.78-7.97,28.46-14.54,43.85-19.52,22.52-7.37,46.58-11.33,71.57-11.33"/>
    <path class="cls-4" d="M2975.37,1728.84c18.99,28.91,30.04,63.5,30.04,100.68,0,101.48-82.27,183.75-183.75,183.75s-183.75-82.27-183.75-183.75c0-37.18,11.05-71.78,30.04-100.68,8.66-13.24,19.01-25.29,30.73-35.85,12.15-10.96,25.77-20.3,40.53-27.72,24.8-12.48,52.8-19.5,82.45-19.5"/>
    <path class="cls-4" d="M2937.08,1756.58c13.37,21.11,21.11,46.11,21.11,72.95,0,75.39-61.12,136.53-136.53,136.53s-136.53-61.14-136.53-136.53c0-26.83,7.74-51.84,21.11-72.95,8.77-13.84,19.94-25.99,32.95-35.87,22.93-17.41,51.49-27.72,82.47-27.72"/>
    <path class="cls-4" d="M2821.66,1740.22c-29.3,0-55.29,14.1-71.59,35.89-11.13,14.88-17.72,33.38-17.72,53.42,0,49.31,39.99,89.31,89.31,89.31s89.31-39.99,89.31-89.31c0-20.04-6.59-38.54-17.72-53.42"/>
    <circle class="cls-4" cx="2821.66" cy="1829.52" r="42.09" transform="translate(71.6 3765) rotate(-68.1)"/>
  </g>
  <g>
    <path class="cls-7" d="M791.73,1783.98c11.6,19.26,19.4,41.06,22.35,64.38.87,6.89,1.32,13.89,1.32,21.02,0,22.1-4.32,43.21-12.19,62.49-24.67,60.52-84.09,103.18-153.48,103.18-31.23,0-60.46-8.65-85.39-23.68"/>
    <path class="cls-7" d="M803.21,1931.87c60.52-24.67,103.18-84.09,103.18-153.48,0-31.23-8.65-60.45-23.68-85.38"/>
    <path class="cls-7" d="M748.38,1736.28c-27.55-20.46-61.69-32.56-98.66-32.56-16.53,0-32.5,2.42-47.56,6.93-9.69,2.9-17.26,10.48-20.17,20.17-4.51,15.06-6.93,31.03-6.93,47.56,0,36.96,12.1,71.09,32.56,98.66,12.9,17.37,29.11,32.13,47.71,43.34,19.23,11.6,41,19.39,64.28,22.35"/>
    <path class="cls-7" d="M833.71,1741.99c-13,13.01-27.18,27.19-41.98,41.99-15.47,15.47-31.63,31.63-47.91,47.91-13.57,13.57-27.21,27.21-40.59,40.59"/>
    <path class="cls-7" d="M564.33,2011.37c3.24-3.23,21.92-21.91,49-49,12.46-12.45,26.68-26.67,42-41.99"/>
    <path class="cls-7" d="M564.33,2011.37c-24.93,15.03-54.16,23.68-85.39,23.68-69.4,0-128.82-42.66-153.48-103.18"/>
    <path class="cls-7" d="M473.34,1920.38c-19.23,11.59-41.01,19.39-64.29,22.35-6.92.88-13.96,1.33-21.1,1.33-22.1,0-43.21-4.32-62.49-12.19-60.52-24.67-103.18-84.09-103.18-153.48,0-31.23,8.65-60.45,23.68-85.38"/>
    <path class="cls-7" d="M314.59,1848.36c2.95-23.31,10.75-45.12,22.35-64.38,11.21-18.58,25.96-34.81,43.35-47.7,27.55-20.46,61.69-32.56,98.66-32.56,16.53,0,32.5,2.42,47.56,6.93,9.69,2.9,17.27,10.48,20.17,20.17,4.51,15.06,6.93,31.03,6.93,47.56,0,36.96-12.1,71.09-32.56,98.66"/>
    <path class="cls-7" d="M380.28,1736.28c-15.35-15.35-29.98-29.98-43.28-43.28"/>
    <path class="cls-7" d="M564.33,1920.33c-12.67-12.67-27.36-27.36-43.29-43.29-14.61-14.61-30.29-30.28-46.38-46.37l-48-48"/>
    <path class="cls-7" d="M378.1,1879.21c-9.78-.92-19.28-3.25-28.34-6.95-13.6-5.55-25.5-13.75-35.18-23.89-17.63-18.44-27.94-43.26-27.94-69.98v-.48c.06-12.55,2.97-24.78,8.3-35.91,4.21-8.78,9.91-16.87,16.92-23.87,7.64-7.64,16.06-16.06,25.12-25.13"/>
    <path class="cls-7" d="M474.66,1830.67c9.25-15.27,14.57-33.16,14.57-52.28v-.1c0-5.6-4.59-10.19-10.19-10.19h-.1c-19.12,0-37.02,5.32-52.28,14.57-18.78,11.35-33.58,28.63-41.81,49.23-4.65,11.6-7.2,24.26-7.2,37.49,0,3.3.15,6.58.46,9.83,3.25.32,6.53.47,9.84.47,13.24,0,25.89-2.55,37.49-7.2"/>
    <path class="cls-7" d="M564.33,1920.33c-9.66,9.66-18.14,18.14-25.11,25.11-7.25,7.25-15.33,12.86-23.89,16.93-34.77,16.52-77.6,7.63-106.28-19.65"/>
    <path class="cls-7" d="M607.62,1877.04c-15.93,15.93-30.62,30.62-43.29,43.29"/>
    <path class="cls-7" d="M654.01,1830.67c15.77-15.77,31.96-31.96,48-48,15.78-15.79,31.43-31.43,46.37-46.38,15.35-15.35,29.98-29.98,43.28-43.28"/>
    <path class="cls-7" d="M743.82,1831.89c4.65,11.6,7.2,24.26,7.2,37.49,0,3.3-.15,6.58-.46,9.83"/>
    <path class="cls-7" d="M791.66,1692.99c9.07,9.07,17.49,17.49,25.13,25.13,7.01,7.01,12.71,15.1,16.92,23.87,5.33,11.13,8.24,23.36,8.3,35.91v.48c0,26.72-10.31,51.53-27.94,69.98"/>
    <path class="cls-7" d="M613.33,1962.37c34.77,16.52,77.6,7.63,106.28-19.65,10.06-9.56,18.37-21.38,23.98-35.15,3.7-9.08,6.03-18.58,6.96-28.37-3.25.32-6.53.47-9.84.47-13.24,0-25.89-2.55-37.49-7.2-20.59-8.23-37.87-23.04-49.23-41.81-9.25-15.27-14.57-33.16-14.57-52.28v-.1c.01-5.6,4.59-10.19,10.19-10.19h.1c19.12,0,37.02,5.32,52.28,14.57"/>
    <path class="cls-7" d="M474.67,1555.32c-15.78,15.77-31.97,31.96-48.01,48-15.78,15.78-31.43,31.43-46.37,46.37-15.35,15.36-29.98,29.99-43.28,43.29"/>
    <path class="cls-7" d="M564.33,1465.66c-12.67,12.67-27.36,27.36-43.29,43.29"/>
    <path class="cls-7" d="M314.59,1537.63c-17.63,18.44-27.94,43.26-27.94,69.98v.48c.06,12.55,2.97,24.78,8.3,35.91"/>
    <path class="cls-7" d="M426.65,1603.33c15.27,9.25,33.16,14.57,52.28,14.57h.1c5.6-.01,10.19-4.59,10.19-10.19v-.1c0-19.12-5.32-37.02-14.56-52.28-11.36-18.78-28.65-33.58-49.24-41.81-11.6-4.65-24.25-7.2-37.49-7.2-3.3,0-6.59.15-9.84.47.93-9.79,3.26-19.29,6.96-28.37,5.61-13.77,13.92-25.59,23.97-35.15,28.69-27.27,71.52-36.17,106.29-19.65"/>
    <path class="cls-7" d="M384.84,1554.1c-4.65-11.6-7.2-24.25-7.2-37.49,0-3.3.15-6.58.46-9.83"/>
    <path class="cls-7" d="M702.01,1603.33c-16.04-16.04-32.23-32.23-48.01-48-16.09-16.09-31.76-31.76-46.37-46.37-15.93-15.93-30.62-30.62-43.29-43.29"/>
    <path class="cls-7" d="M791.67,1692.99c-13.31-13.3-27.94-27.93-43.29-43.29"/>
    <path class="cls-7" d="M654,1555.32c-9.24,15.27-14.56,33.16-14.56,52.28v.1c.01,5.6,4.59,10.18,10.19,10.19h.1c19.12,0,37.02-5.32,52.28-14.57,18.78-11.35,33.58-28.64,41.81-49.23,4.65-11.6,7.2-24.25,7.2-37.49,0-3.3-.15-6.58-.46-9.83,9.78.92,19.28,3.25,28.34,6.95,13.6,5.54,25.49,13.75,35.18,23.89,17.63,18.44,27.94,43.26,27.94,69.98v.48c-.06,12.55-2.97,24.78-8.3,35.91"/>
    <path class="cls-7" d="M719.63,1443.27c-28.69-27.27-71.52-36.17-106.29-19.65-8.56,4.07-16.64,9.68-23.89,16.93-6.96,6.96-15.45,15.45-25.11,25.11"/>
    <path class="cls-7" d="M750.56,1506.78c-3.25-.32-6.53-.47-9.84-.47-13.24,0-25.89,2.55-37.49,7.2"/>
    <path class="cls-7" d="M384.84,1831.89c13.57,13.57,27.21,27.21,40.59,40.59,16.61,16.6,32.79,32.79,47.91,47.9,15.32,15.33,29.55,29.55,41.99,41.99"/>
    <path class="cls-7" d="M336.94,1783.98c-14.81-14.81-28.98-28.98-41.98-41.99"/>
    <path class="cls-7" d="M814.08,1537.63c-2.95,23.31-10.75,45.12-22.36,64.36-11.2,18.59-25.95,34.82-43.34,47.7-27.55,20.47-61.69,32.57-98.66,32.57-16.53,0-32.5-2.42-47.56-6.93-9.69-2.9-17.26-10.48-20.17-20.17-4.51-15.06-6.93-31.03-6.93-47.56,0-36.96,12.1-71.1,32.56-98.66"/>
    <path class="cls-7" d="M803.21,1454.13c-24.67-60.52-84.09-103.18-153.48-103.18-31.23,0-60.46,8.65-85.39,23.68"/>
    <path class="cls-7" d="M882.71,1693c15.03-24.95,23.68-54.16,23.68-85.39,0-69.4-42.66-128.82-103.18-153.48-19.28-7.86-40.38-12.19-62.49-12.19-7.15,0-14.18.45-21.09,1.33-23.29,2.96-45.06,10.75-64.29,22.35"/>
    <path class="cls-7" d="M613.33,1423.62c12.46,12.45,26.68,26.67,42,41.99,15.11,15.12,31.3,31.3,47.9,47.9,13.38,13.38,27.02,27.02,40.59,40.59"/>
    <path class="cls-7" d="M882.71,1693c-12.53-12.53-29.45-29.45-49-49-13-13.01-27.18-27.19-41.99-42"/>
    <path class="cls-7" d="M380.28,1649.7c27.55,20.47,61.69,32.57,98.66,32.57,16.53,0,32.5-2.42,47.56-6.93,9.69-2.9,17.27-10.48,20.17-20.17,4.51-15.06,6.93-31.03,6.93-47.56,0-36.96-12.1-71.1-32.56-98.66-12.9-17.38-29.12-32.13-47.71-43.34-19.23-11.6-41-19.39-64.28-22.35"/>
    <path class="cls-7" d="M564.33,1374.62c-24.93-15.03-54.16-23.68-85.39-23.68-69.4,0-128.82,42.66-153.48,103.18-7.86,19.28-12.19,40.38-12.19,62.49,0,7.12.45,14.14,1.32,21.02,2.95,23.31,10.75,45.12,22.36,64.36"/>
    <path class="cls-7" d="M245.95,1693c-15.03-24.95-23.68-54.16-23.68-85.39,0-69.4,42.66-128.82,103.18-153.48"/>
    <path class="cls-7" d="M425.43,1513.51c-13.38,13.38-27.02,27.02-40.59,40.59-16.27,16.28-32.43,32.43-47.9,47.9s-28.99,28.99-41.99,42c-19.55,19.55-36.47,36.47-48.99,48.99"/>
    <path class="cls-7" d="M564.33,1374.62c-3.24,3.23-21.92,21.91-49,49-12.46,12.45-26.68,26.67-42,41.99"/>
  </g>
  <g>
    <circle class="cls-5" cx="1520.07" cy="1593.05" r="25.82"/>
    <circle class="cls-5" cx="1520.07" cy="1593.05" r="25.82"/>
    <path class="cls-5" d="M1570.43,1616.33c-8.83,19.06-28.08,32.2-50.37,32.2"/>
    <path class="cls-5" d="M1474.61,1624.87c-6.31-9.01-10.02-19.97-10.02-31.82,0-30.65,24.83-55.48,55.47-55.48,20.24,0,37.96,10.84,47.64,27.04.2.35.41.71.62,1.06"/>
    <path class="cls-5" d="M1520.06,1678.17c31.47,0,58.94-17.06,73.66-42.45"/>
    <path class="cls-5" d="M1446.15,1635.3c-7.13-12.44-11.2-26.88-11.2-42.25,0-47.02,38.11-85.13,85.12-85.13,31.25,0,58.56,16.83,73.36,41.93.16.28.32.56.48.83"/>
    <path class="cls-5" d="M1420.48,1650.15c-9.66-16.81-15.19-36.31-15.19-57.09,0-63.36,51.36-114.77,114.77-114.77,42.04,0,79.32,22.7,99.37,57.3"/>
    <path class="cls-5" d="M1520.06,1707.83c42.45,0,79.52-23.04,99.37-57.31"/>
    <path class="cls-5" d="M1397.45,1669.39c-13.82-22.14-21.8-48.31-21.8-76.33,0-79.77,64.66-144.43,144.42-144.43,52.45,0,99.36,28.12,124.81,71.71"/>
    <path class="cls-5" d="M1520.06,1737.47c54.91,0,103.22-30.78,127.57-76.65"/>
    <path class="cls-5" d="M1377.54,1693c-19.87-28.29-31.54-62.74-31.54-99.94,0-101.87,87.16-182.13,188.98-173.44,58.73,4.98,108.48,39,135.91,86.48"/>
    <path class="cls-5" d="M1520.06,1767.12c70.03,0,130.4-41.36,158.02-100.96"/>
    <circle class="cls-5" cx="1520.07" cy="1792.95" r="25.82"/>
    <path class="cls-5" d="M1565.5,1761.13c13.48,19.21,12.53,43.56,2.2,60.25-.06.1-.13.21-.19.33"/>
    <path class="cls-5" d="M1520.06,1737.47c-30.64,0-55.47,24.83-55.47,55.47,0,32.14,27.36,57.99,60.22,55.27"/>
    <path class="cls-5" d="M1593.97,1750.7c15.36,26.78,14.75,59.63-.54,85.44"/>
    <path class="cls-5" d="M1519.58,1878.06c-46.79-.25-84.64-38.27-84.64-85.12s38.11-85.12,85.12-85.12"/>
    <path class="cls-5" d="M1619.64,1735.84c19.27,33.54,21.4,76.74-.49,115.05"/>
    <path class="cls-5" d="M1519.52,1907.71c-63.13-.28-114.23-51.55-114.23-114.76s51.39-114.77,114.77-114.77"/>
    <path class="cls-5" d="M1642.68,1716.6c27.33,43.58,29.85,100.99,2.68,148.23-.18.31-.37.62-.54.93"/>
    <path class="cls-5" d="M1520.06,1648.53c-79.76,0-144.42,64.65-144.42,144.42s68.42,147.06,148.9,144.36"/>
    <path class="cls-5" d="M1520.06,1618.87c-96.13,0-174.06,77.93-174.06,174.07,0,101.86,87.15,182.14,188.99,173.44"/>
    <path class="cls-5" d="M1662.59,1693c5.92,8.42,11.11,17.39,15.48,26.83,22.98,49.55,21.93,109.68-7.16,160.05"/>
    <circle class="cls-5" cx="1692.99" cy="1492.72" r="25.82"/>
    <path class="cls-5" d="M1642.63,1469.46c8.79-19.02,28.04-32.22,50.37-32.22,42.02,0,69.91,45.56,47.64,83.92"/>
    <path class="cls-5" d="M1644.88,1520.34c10.4,18.08,30.49,29.51,52.87,27.66"/>
    <path class="cls-5" d="M1619.15,1535.1c14.62,25.41,41.98,42.58,73.36,42.75"/>
    <path class="cls-5" d="M1766.35,1535.93c33.72-59-9.18-128.32-73.35-128.32-31.46,0-58.93,17.06-73.66,42.45"/>
    <path class="cls-5" d="M1593.43,1549.86c19.71,34.3,56.66,57.44,99.02,57.63"/>
    <path class="cls-5" d="M1593.63,1435.25c19.86-34.26,56.92-57.29,99.37-57.29,63.38,0,114.77,51.38,114.77,114.77,0,20.99-5.64,40.67-15.48,57.59"/>
    <path class="cls-5" d="M1565.43,1424.94c24.28-45.6,72.29-76.64,127.56-76.64,79.76,0,144.42,64.66,144.42,144.43,0,26.51-7.14,51.36-19.61,72.71"/>
    <path class="cls-5" d="M1567.7,1564.61c25.75,45.06,75.41,74.29,129.76,72.46"/>
    <circle class="cls-5" cx="1692.99" cy="1893.26" r="25.82"/>
    <path class="cls-5" d="M1743.36,1916.55c-8.8,19-28.05,32.19-50.36,32.19-42.05,0-69.89-45.58-47.64-83.91"/>
    <path class="cls-5" d="M1688.24,1837.99c21.87-1.81,41.76,9.08,52.39,26.83.27.48.58,1,.58,1"/>
    <path class="cls-5" d="M1693.48,1808.14c31.01.17,58.09,16.92,72.81,41.84.21.35.41.69.62,1.04"/>
    <path class="cls-5" d="M1619.63,1850.08c-.17.27-.33.54-.48.82-7.18,12.47-11.28,26.95-11.28,42.37,0,47.01,38.12,85.12,85.13,85.12,31.46,0,58.92-17.06,73.66-42.44"/>
    <path class="cls-5" d="M1693.55,1778.5c42.14.19,78.92,23.1,98.71,57.11"/>
    <path class="cls-5" d="M1593.91,1835.31c-9.97,16.82-15.68,36.98-15.68,57.95,0,63.38,51.38,114.77,114.77,114.77,42.44,0,79.51-23.04,99.35-57.29"/>
    <path class="cls-5" d="M1820.55,1961.04c-24.27,45.6-72.29,76.64-127.55,76.64-79.77,0-144.43-64.66-144.43-144.42,0-26.03,6.89-50.46,18.94-71.55.06-.11.98-1.7,1.07-1.84"/>
    <path class="cls-5" d="M1688.51,1748.91c51.43-1.73,101.87,24.43,129.76,72.47"/>
    <path class="cls-5" d="M1851.01,1966.39c-27.63,59.6-87.99,100.95-158.01,100.95-114.15,0-197.78-108.36-168.18-219.12,3.96-14.83,9.83-28.89,17.33-41.88"/>
    <path class="cls-5" d="M1678.07,1719.82c69.05-5.89,132.7,29.24,165.77,86.52"/>
    <circle class="cls-5" cx="1865.92" cy="1593.05" r="25.82"/>
    <circle class="cls-5" cx="1865.92" cy="1593.05" r="25.82"/>
    <path class="cls-5" d="M1861.18,1537.78c32.75-2.73,60.22,23.05,60.22,55.28s-24.84,55.47-55.48,55.47"/>
    <path class="cls-5" d="M1817.8,1565.44c-10.44,18.13-9.96,41.4,2.68,59.42"/>
    <path class="cls-5" d="M1866.41,1507.94c46.79.26,84.64,38.26,84.64,85.12s-38.11,85.12-85.13,85.12"/>
    <path class="cls-5" d="M1792.01,1635.3c-15.01-26.19-14.99-58.72.27-84.99"/>
    <path class="cls-5" d="M1866.48,1478.29c63.13.29,114.21,51.56,114.21,114.76s-51.38,114.77-114.77,114.77"/>
    <path class="cls-5" d="M1766.34,1650.16c-9.66-16.82-15.19-36.32-15.19-57.1s6.2-42.33,15.69-57.96"/>
    <path class="cls-5" d="M1861.45,1448.7c80.51-2.7,148.9,62.12,148.9,144.36s-64.66,144.42-144.43,144.42"/>
    <path class="cls-5" d="M1743.3,1669.39c-27.83-44.79-29.58-101.86-2.12-149.16"/>
    <path class="cls-5" d="M1851.02,1419.61c101.69-8.7,188.98,71.48,188.98,173.44,0,96.15-77.97,174.06-174.07,174.06"/>
    <path class="cls-5" d="M1715.27,1505.81c-33.23,57.26-31.61,130.66,8.12,187.18"/>
    <circle class="cls-5" cx="1865.92" cy="1792.95" r="25.82"/>
    <path class="cls-5" d="M1911.37,1761.13c6.32,9.01,10.03,19.98,10.03,31.82,0,30.64-24.84,55.47-55.48,55.47-21.36,0-39.58-12.28-48.18-27.97"/>
    <path class="cls-5" d="M1815.57,1769.66c8.69-18.88,27.93-32.19,50.35-32.19"/>
    <path class="cls-5" d="M1792.26,1750.27c14.73-25.37,42.2-42.44,73.65-42.44"/>
    <path class="cls-5" d="M1792.25,1835.61c14.84,25.56,42.44,42.46,73.67,42.46,47.02,0,85.13-38.12,85.13-85.13,0-15.37-4.07-29.8-11.2-42.25"/>
    <path class="cls-5" d="M1766.56,1735.45c19.86-34.25,56.92-57.28,99.36-57.28"/>
    <path class="cls-5" d="M1766.29,1849.98c.21.35.41.69.62,1.04,19.93,33.93,56.81,56.7,99.01,56.7,63.39,0,114.77-51.38,114.77-114.77,0-20.78-5.52-40.28-15.18-57.1"/>
    <path class="cls-5" d="M1738.36,1725.17c24.27-45.61,72.29-76.64,127.55-76.64"/>
    <path class="cls-5" d="M1740.63,1864.83c23.76,42.23,70.97,72.54,125.28,72.54,79.77,0,144.43-64.66,144.43-144.43,0-28.04-7.98-54.2-21.81-76.34"/>
    <path class="cls-5" d="M1707.92,1719.82c27.63-59.6,87.99-100.95,158-100.95"/>
    <path class="cls-5" d="M1715.08,1879.87c30.26,52.4,86.72,87.15,150.84,87.15,96.14,0,174.07-77.93,174.07-174.07,0-37.2-11.66-71.66-31.54-99.95"/>
    <path class="cls-5" d="M1534.98,1419.61c27.63-59.61,88-100.96,158.02-100.96s130.39,41.35,158.02,100.96c23.59,50.91,21.29,111.15-7.48,160.57"/>
    <path class="cls-5" d="M1542.57,1580.35c33.81,57.97,97.82,91.57,165.34,85.81"/>
  </g>
  <g>
    <path class="cls-2" d="M1745.8,693.19c22.84-5.22,44.42-13.78,64.19-25.1,21.77-12.48,41.36-28.32,58.04-46.84,14.71-16.3,27.16-34.67,36.88-54.62,15.19-31.16,23.72-66.15,23.72-103.14,0-.97-.01-1.93-.02-2.9-1.54-128.82-106.45-232.76-235.63-232.76s-234.09,103.94-235.63,232.76"/>
    <path class="cls-2" d="M1627.17,435.47c10.89-25.57,36.25-43.49,65.81-43.49s54.92,17.93,65.81,43.49c3.67,8.6,5.7,18.07,5.7,28.01,0,16.56-5.63,31.81-15.08,43.93"/>
    <path class="cls-2" d="M1868.03,621.25c9.45,12.12,15.08,27.37,15.08,43.93,0,39.49-32.01,71.51-71.51,71.51-4.19,0-8.31-.36-12.31-1.06-24.16-4.18-44.16-20.49-53.5-42.43"/>
    <path class="cls-2" d="M1749.41,507.42c-16.28-18.05-35.3-33.57-56.42-45.9-20.21-11.8-42.35-20.67-65.81-26.05-16.97-3.89-34.65-5.94-52.82-5.94-4.32,0-8.63.12-12.9.35-37.75,2.03-73.14,12.95-104.11,30.7-70.89,40.62-118.65,117.03-118.65,204.59,0,130.15,105.5,235.65,235.65,235.65,43.25,0,83.78-11.65,118.63-31.99"/>
    <path class="cls-2" d="M1586.66,594.74c-6.96,22.25-10.71,45.91-10.71,70.44,0,.97.01,1.94.02,2.91.28,23.5,4,46.16,10.69,67.54,6.62,21.16,16.14,41.03,28.09,59.16,20,30.3,46.8,55.71,78.23,74.06,34.85,20.34,75.38,31.99,118.63,31.99,130.15,0,235.65-105.5,235.65-235.65,0-87.57-47.75-163.98-118.65-204.59"/>
    <path class="cls-2" d="M1586.66,735.62c-3.99.7-8.11,1.06-12.31,1.06-39.49,0-71.51-32.01-71.51-71.51,0-16.56,5.63-31.81,15.08-43.93,13.09-16.78,33.49-27.57,56.42-27.57,4.19,0,8.31.36,12.31,1.06"/>
    <path class="cls-2" d="M1692.98,599.21c-16.8-30.14-44.73-53.2-78.23-63.63-12.76-3.97-26.32-6.12-40.38-6.12-36.16,0-68.98,14.13-93.32,37.16-26.11,24.74-42.41,59.75-42.41,98.55,0,74.95,60.77,135.72,135.72,135.72,14.07,0,27.64-2.15,40.39-6.12"/>
    <path class="cls-2" d="M1692.99,599.2c-10.9,19.54-17.1,42.03-17.1,65.98,0,11.6,1.46,22.86,4.19,33.6,2.92,11.45,7.28,22.3,12.9,32.37,16.79,30.14,44.72,53.2,78.22,63.63,12.77,3.97,26.34,6.12,40.4,6.12,74.95,0,135.72-60.77,135.72-135.72,0-38.81-16.3-73.81-42.41-98.55"/>
    <path class="cls-2" d="M1561.46,429.88c14.96-58.71,68.16-102.11,131.52-102.11,74.95,0,135.72,60.76,135.72,135.72s-60.76,135.71-135.71,135.72"/>
    <path class="cls-2" d="M1508.95,438.73c12.09-90.86,89.87-160.94,184.04-160.94,102.55,0,185.68,83.14,185.68,185.69s-83.12,185.68-185.68,185.68c-5.42,0-10.77-.24-16.07-.69"/>
    <path class="cls-2" d="M1648.66,835.41c-22.76,9.95-47.89,15.46-74.31,15.46-102.55,0-185.68-83.14-185.68-185.69s83.12-185.68,185.68-185.68c75.53,0,140.52,45.08,169.53,109.82"/>
    <path class="cls-2" d="M1922.67,516.35c45.3,33.87,74.62,87.92,74.62,148.83,0,102.55-83.12,185.69-185.68,185.69-45.1,0-86.45-16.08-118.63-42.82-40.97-34.06-67.06-85.42-67.06-142.87,0-9.42.7-18.68,2.05-27.72,4.31-28.77,15.22-55.4,31.14-78.26"/>
  </g>
  <g>
    <path class="cls-6" d="M2831.63,390.93c18.03-5.51,28.18-24.58,22.67-42.61-5.51-18.03-24.58-28.17-42.61-22.67-18.03,5.51-28.18,24.58-22.67,42.61,5.51,18.03,24.58,28.18,42.61,22.67Z"/>
    <path class="cls-6" d="M2781.85,412.2c-11.18-8.25-19.91-20.02-24.28-34.33-10.81-35.4,9.12-72.86,44.52-83.67,21.09-6.45,42.91-1.98,59.4,10.18,11.18,8.25,19.91,20.02,24.28,34.33,10.12,33.15-6.71,68.13-37.98,81.31"/>
    <path class="cls-6" d="M2762.3,438.66c-16.66-12.3-29.67-29.86-36.18-51.19-16.12-52.77,13.59-108.62,66.36-124.74,31.45-9.6,63.98-2.94,88.55,15.19,16.67,12.29,29.68,29.86,36.19,51.18,13.23,43.29-4.39,88.64-40.28,112.44"/>
    <path class="cls-6" d="M2742.76,465.12c-22.15-16.34-39.44-39.68-48.11-68.04-21.42-70.14,18.07-144.38,88.21-165.8,41.79-12.76,85.03-3.9,117.7,20.18,22.15,16.34,39.44,39.68,48.1,68.03,14.36,47.01,1.36,95.86-29.9,129.41"/>
    <path class="cls-6" d="M2801.39,385.74s49.57,36.61,104.95,77.52"/>
    <line class="cls-6" x1="2847.7" y1="542.62" x2="2742.76" y2="465.12"/>
    <line class="cls-6" x1="2867.22" y1="516.19" x2="2762.29" y2="438.69"/>
    <line class="cls-6" x1="2886.74" y1="489.76" x2="2781.8" y2="412.26"/>
    <path class="cls-6" d="M2811.7,737.74c-18.03,5.51-28.18,24.58-22.67,42.61,5.51,18.03,24.58,28.17,42.61,22.67,18.03-5.51,28.18-24.58,22.67-42.61-5.51-18.03-24.58-28.18-42.61-22.67Z"/>
    <path class="cls-6" d="M2861.48,716.46c11.18,8.25,19.91,20.02,24.28,34.33,10.81,35.4-9.11,72.86-44.52,83.67-21.09,6.45-42.91,1.98-59.4-10.18-11.18-8.25-19.91-20.02-24.28-34.33-10.12-33.15,6.71-68.13,37.98-81.31"/>
    <path class="cls-6" d="M2881.03,690c16.66,12.3,29.67,29.86,36.18,51.19,16.12,52.77-13.59,108.62-66.36,124.74-31.45,9.6-63.98,2.94-88.55-15.19-16.67-12.29-29.68-29.86-36.19-51.18-13.23-43.29,4.39-88.64,40.28-112.44"/>
    <path class="cls-6" d="M2900.57,663.54c22.15,16.34,39.44,39.68,48.11,68.04,21.42,70.14-18.07,144.38-88.21,165.8-41.79,12.76-85.03,3.9-117.7-20.18-22.16-16.34-39.44-39.68-48.1-68.03-14.47-47.38-1.16-96.63,30.64-130.2"/>
    <path class="cls-6" d="M2920.09,637.11c27.64,20.39,49.21,49.5,60.01,84.87,26.72,87.51-22.54,180.1-110.04,206.83-52.13,15.93-106.08,4.88-146.82-25.17-27.65-20.38-49.21-49.5-60.02-84.87-10.3-33.74-9.31-68.25.83-99.43"/>
    <path class="cls-6" d="M2736.96,665.37c55.4,40.92,104.99,77.55,104.99,77.55"/>
    <path class="cls-6" d="M2920.09,637.11l-146.39-108.12-50.46-37.44c-27.65-20.38-49.21-49.49-60.02-84.87-26.72-87.5,22.55-180.1,110.04-206.83,52.13-15.92,106.08-4.87,146.83,25.18,27.64,20.38,49.21,49.49,60.01,84.87,10.29,33.7,9.31,68.17-.79,99.34"/>
    <line class="cls-6" x1="2900.57" y1="663.55" x2="2795.6" y2="586.02"/>
    <line class="cls-6" x1="2881.05" y1="689.98" x2="2776.08" y2="612.45"/>
    <line class="cls-6" x1="2861.52" y1="716.41" x2="2756.56" y2="638.88"/>
    <path class="cls-6" d="M2638.32,554.33c-5.51-18.03-24.58-28.18-42.61-22.67-18.03,5.51-28.17,24.58-22.67,42.61,5.51,18.03,24.58,28.18,42.61,22.67,18.03-5.51,28.18-24.58,22.67-42.61Z"/>
    <path class="cls-6" d="M2659.6,604.11c-8.25,11.18-20.02,19.91-34.33,24.28-35.4,10.81-72.86-9.12-83.67-44.52-6.45-21.09-1.98-42.91,10.18-59.4,8.25-11.18,20.02-19.91,34.33-24.28,33.15-10.12,68.13,6.71,81.31,37.98"/>
    <path class="cls-6" d="M2686.06,623.66c-12.3,16.66-29.86,29.67-51.19,36.18-52.77,16.12-108.62-13.59-124.74-66.36-9.6-31.45-2.94-63.98,15.19-88.55,12.29-16.67,29.86-29.68,51.18-36.19,43.29-13.23,88.64,4.39,112.44,40.28"/>
    <path class="cls-6" d="M2712.51,643.2c-16.34,22.15-39.68,39.44-68.04,48.11-60.9,18.6-124.89-8.72-154.72-62.16"/>
    <path class="cls-6" d="M2489.76,629.15c-4.52-8.11-8.26-16.81-11.09-26.05-12.76-41.79-3.9-85.03,20.18-117.7,16.34-22.15,39.68-39.44,68.03-48.1,49.1-15,100.2-.16,133.79,34.16"/>
    <path class="cls-6" d="M2664.03,409.24c-33.05-12.46-70.33-14.5-106.73-3.38-35.38,10.81-64.49,32.37-84.87,60.01-30.05,40.75-41.1,94.7-25.18,146.83,26.73,87.49,119.33,136.76,206.83,110.04,35.38-10.81,64.49-32.37,84.87-60.01"/>
    <path class="cls-6" d="M2633.14,584.57s36.17-48.98,76.79-103.95"/>
    <line class="cls-6" x1="2815.12" y1="559.59" x2="2738.94" y2="662.73"/>
    <line class="cls-6" x1="2788.69" y1="540.06" x2="2712.51" y2="643.2"/>
    <line class="cls-6" x1="2762.28" y1="520.51" x2="2686.08" y2="623.67"/>
    <line class="cls-6" x1="2735.88" y1="500.93" x2="2659.65" y2="604.16"/>
    <path class="cls-6" d="M3005.01,574.26c5.51,18.03,24.58,28.18,42.61,22.67,18.03-5.51,28.17-24.58,22.67-42.61-5.51-18.03-24.58-28.18-42.61-22.67-18.03,5.51-28.18,24.58-22.67,42.61Z"/>
    <path class="cls-6" d="M2983.74,524.48c8.25-11.18,20.02-19.91,34.33-24.28,35.4-10.81,72.86,9.12,83.67,44.52,6.45,21.09,1.98,42.91-10.18,59.4-8.25,11.18-20.02,19.91-34.33,24.28-33.15,10.12-68.13-6.71-81.31-37.98"/>
    <path class="cls-6" d="M2957.27,504.93c12.3-16.66,29.86-29.67,51.19-36.18,52.77-16.12,108.62,13.59,124.74,66.36,9.6,31.45,2.94,63.98-15.19,88.55-12.29,16.67-29.86,29.68-51.18,36.19-43.29,13.23-88.64-4.39-112.44-40.28"/>
    <path class="cls-6" d="M2930.82,485.39c16.34-22.15,39.68-39.44,68.04-48.11,70.14-21.42,144.38,18.07,165.8,88.21,12.76,41.79,3.9,85.03-20.18,117.7-16.34,22.15-39.68,39.44-68.03,48.1-49.47,15.11-100.97-.07-134.55-34.94"/>
    <path class="cls-6" d="M2904.38,465.87c20.39-27.64,49.5-49.21,84.87-60.01,87.51-26.72,180.1,22.55,206.83,110.04,15.93,52.13,4.88,106.08-25.17,146.83-20.39,27.64-49.5,49.21-84.87,60.01-36.41,11.12-73.71,9.08-106.77-3.41"/>
    <path class="cls-6" d="M2933.37,648.02c40.63-55,76.82-104.01,76.82-104.01"/>
    <line class="cls-6" x1="2904.38" y1="465.87" x2="2828.09" y2="569.16"/>
    <line class="cls-6" x1="2930.82" y1="485.39" x2="2854.52" y2="588.69"/>
    <line class="cls-6" x1="2957.25" y1="504.91" x2="2880.95" y2="608.21"/>
    <line class="cls-6" x1="2983.68" y1="524.44" x2="2907.39" y2="627.72"/>
  </g>
  <g>
    <path class="cls-3" d="M707.24,543.31c79.26-79.26,79.26-207.77,0-287.03-79.26-79.26-207.77-79.26-287.03,0-79.26,79.26-79.26,207.77,0,287.03"/>
    <path class="cls-3" d="M421.43,544.52c11.62,11.62,11.61,30.44,0,42.05s-30.43,11.62-42.05,0"/>
    <path class="cls-3" d="M682.74,518.81c65.73-65.73,65.73-172.3,0-238.03-65.73-65.73-172.3-65.73-238.03,0-65.73,65.73-65.73,172.3,0,238.03l1.22,1.22c25.15,25.15,25.14,65.91,0,91.04-25.14,25.14-65.9,25.15-91.04,0"/>
    <path class="cls-3" d="M658.24,494.31c52.2-52.2,52.2-136.83,0-189.04-52.2-52.2-136.83-52.2-189.04,0-52.2,52.2-52.2,136.83,0,189.04l1.22,1.22c38.68,38.68,38.68,101.37,0,140.04s-101.37,38.68-140.04,0"/>
    <path class="cls-3" d="M528.9,602.45c-6.03,21.1-17.36,41-33.98,57.62-52.2,52.2-136.83,52.2-189.04,0"/>
    <path class="cls-3" d="M528.62,527.68c-6.11-20.73-17.34-40.28-33.7-56.65l-1.22-1.22c-38.68-38.68-38.68-101.37,0-140.04,38.68-38.68,101.37-38.68,140.04,0,38.68,38.68,38.68,101.37,0,140.04"/>
    <path class="cls-3" d="M545.03,651.73c-6.99,11.71-15.53,22.75-25.61,32.83-65.73,65.73-172.3,65.73-238.03,0"/>
    <path class="cls-3" d="M544.39,478.31c-6.86-11.31-15.19-21.99-24.97-31.77l-1.22-1.22c-25.14-25.14-25.14-65.91,0-91.04s65.91-25.14,91.04,0c25.14,25.14,25.14,65.91,0,91.04"/>
    <path class="cls-3" d="M564.78,684.64c-6.2,8.56-13.15,16.72-20.86,24.42-79.26,79.26-207.77,79.26-287.03,0"/>
    <path class="cls-3" d="M563.89,445.24c-5.98-8.12-12.63-15.87-19.97-23.21l-1.22-1.22c-11.61-11.61-11.61-30.44,0-42.05,11.61-11.61,30.44-11.61,42.05,0,11.61,11.61,11.61,30.44,0,42.05"/>
    <path class="cls-3" d="M379.38,586.57c-11.62-11.62-11.61-30.44,0-42.05,11.61-11.61,30.43-11.62,42.05,0"/>
    <path class="cls-3" d="M388.48,502.27c-12.3,2.3-24.08,8.23-33.6,17.75-25.14,25.14-25.15,65.9,0,91.04"/>
    <path class="cls-3" d="M373.34,470.28c-15.74,4.44-30.58,12.86-42.96,25.25-38.68,38.68-38.68,101.37,0,140.04"/>
    <path class="cls-3" d="M364.16,436.87c-21.34,5.99-41.48,17.37-58.27,34.16-52.2,52.2-52.2,136.83,0,189.04"/>
    <path class="cls-3" d="M360.77,401.95c-29.1,7.01-56.67,21.87-79.39,44.58-65.73,65.73-65.73,172.3,0,238.03"/>
    <path class="cls-3" d="M363.58,365.94c-39.09,7.17-76.46,25.86-106.69,56.09-79.26,79.26-79.26,207.77,0,287.03"/>
    <path class="cls-3" d="M749.29,585.36c-11.62,11.62-30.44,11.61-42.05,0s-11.62-30.43,0-42.05"/>
    <path class="cls-3" d="M773.79,609.85c-25.15,25.15-65.91,25.14-91.04,0-25.14-25.14-25.15-65.9,0-91.04"/>
    <path class="cls-3" d="M798.28,634.35c-38.68,38.68-101.37,38.68-140.04,0-38.68-38.68-38.68-101.37,0-140.04"/>
    <path class="cls-3" d="M822.78,658.85c-52.2,52.2-136.83,52.2-189.04,0-52.2-52.2-52.2-136.83,0-189.04"/>
    <path class="cls-3" d="M847.28,683.35c-65.73,65.73-172.3,65.73-238.03,0-65.73-65.73-65.73-172.3,0-238.03"/>
    <path class="cls-3" d="M871.78,707.85c-79.26,79.26-207.77,79.26-287.03,0-79.26-79.26-79.26-207.77,0-287.03"/>
    <path class="cls-3" d="M707.24,543.31c11.62-11.62,30.44-11.61,42.05,0,11.61,11.61,11.62,30.43,0,42.05"/>
    <path class="cls-3" d="M739.72,500.98c12.48,2.24,24.42,8.19,34.07,17.83,25.14,25.14,25.15,65.9,0,91.04"/>
    <path class="cls-3" d="M754.63,468.86c15.99,4.4,31.09,12.88,43.66,25.45,38.68,38.68,38.68,101.37,0,140.04"/>
    <path class="cls-3" d="M763.56,435.38c21.69,5.91,42.19,17.4,59.22,34.43,52.2,52.2,52.2,136.83,0,189.04"/>
    <path class="cls-3" d="M766.68,400.44c29.53,6.88,57.57,21.85,80.6,44.87,65.73,65.73,65.73,172.3,0,238.03"/>
    <path class="cls-3" d="M763.6,364.45c39.63,6.97,77.56,25.75,108.18,56.36,79.26,79.26,79.26,207.77,0,287.03"/>
    <path class="cls-3" d="M500.7,742.04c2.47,11.85,8.3,23.15,17.51,32.35,25.14,25.14,65.9,25.15,91.04,0"/>
    <path class="cls-3" d="M468.68,756.73c4.52,15.43,12.85,29.98,25.03,42.16,38.68,38.68,101.37,38.68,140.04,0"/>
    <path class="cls-3" d="M435.16,765.53c6.01,21.2,17.36,41.18,34.04,57.86,52.2,52.2,136.83,52.2,189.04,0"/>
    <path class="cls-3" d="M400.13,768.52c7,29.09,21.87,56.67,44.58,79.37,65.73,65.73,172.3,65.73,238.03,0"/>
    <path class="cls-3" d="M364.03,765.23c7.12,39.26,25.84,76.81,56.18,107.15,79.26,79.26,207.77,79.26,287.03,0"/>
    <path class="cls-3" d="M609.25,774.39c9.65-9.65,15.59-21.59,17.83-34.07"/>
    <path class="cls-3" d="M633.74,798.89c12.57-12.57,21.05-27.67,25.45-43.66"/>
    <path class="cls-3" d="M658.24,823.39c17.04-17.04,28.52-37.53,34.43-59.22"/>
    <path class="cls-3" d="M682.74,847.89c23.03-23.03,37.99-51.06,44.87-80.6"/>
    <path class="cls-3" d="M707.24,872.39c30.61-30.61,49.39-68.55,56.36-108.18"/>
    <path class="cls-3" d="M585.88,709.05c-11.62-11.62-30.44-11.61-42.05,0-11.61,11.61-11.62,30.43,0,42.05,11.62,11.62,30.44,11.61,42.05,0,11.61-11.61,11.62-30.43,0-42.05Z"/>
    <line class="cls-3" x1="562.36" y1="694.46" x2="567.35" y2="694.46"/>
  </g>
</svg>