<?xml version="1.0" encoding="UTF-8"?>
<svg id="Layer_1" data-name="Layer 1" xmlns="http://www.w3.org/2000/svg" viewBox="0 0 1000 1000">
  <defs>
    <style>
      .cls-1 {
        fill: none;
        stroke: #0e2b38;
        stroke-linecap: round;
        stroke-linejoin: round;
        stroke-width: 10px;
      }
    </style>
  </defs>
  <path class="cls-1" d="M642.91,478.98c79.26-79.26,79.26-207.77,0-287.03-79.26-79.26-207.77-79.26-287.03,0-79.26,79.26-79.26,207.77,0,287.03"/>
  <path class="cls-1" d="M357.09,480.19c11.62,11.62,11.61,30.44,0,42.05-11.61,11.61-30.43,11.62-42.05,0"/>
  <path class="cls-1" d="M618.41,454.48c65.73-65.73,65.73-172.3,0-238.03-65.73-65.73-172.3-65.73-238.03,0-65.73,65.73-65.73,172.3,0,238.03l1.22,1.22c25.15,25.15,25.14,65.91,0,91.04-25.14,25.14-65.9,25.15-91.04,0"/>
  <path class="cls-1" d="M593.91,429.98c52.2-52.2,52.2-136.83,0-189.04-52.2-52.2-136.83-52.2-189.04,0-52.2,52.2-52.2,136.83,0,189.04l1.22,1.22c38.68,38.68,38.68,101.37,0,140.04s-101.37,38.68-140.04,0"/>
  <path class="cls-1" d="M464.56,538.12c-6.03,21.1-17.36,41-33.98,57.62-52.2,52.2-136.83,52.2-189.04,0"/>
  <path class="cls-1" d="M464.29,463.34c-6.11-20.73-17.34-40.28-33.7-56.65l-1.22-1.22c-38.68-38.68-38.68-101.37,0-140.04,38.68-38.68,101.37-38.68,140.04,0,38.68,38.68,38.68,101.37,0,140.04"/>
  <path class="cls-1" d="M480.7,587.4c-6.99,11.71-15.53,22.75-25.61,32.83-65.73,65.73-172.3,65.73-238.03,0"/>
  <path class="cls-1" d="M480.06,413.97c-6.86-11.31-15.19-21.99-24.97-31.77l-1.22-1.22c-25.14-25.14-25.14-65.91,0-91.04s65.91-25.14,91.04,0c25.14,25.14,25.14,65.91,0,91.04"/>
  <path class="cls-1" d="M500.44,620.31c-6.2,8.56-13.15,16.72-20.86,24.42-79.26,79.26-207.77,79.26-287.03,0"/>
  <path class="cls-1" d="M499.56,380.91c-5.98-8.12-12.63-15.87-19.97-23.21l-1.22-1.22c-11.61-11.61-11.61-30.44,0-42.05,11.61-11.61,30.44-11.61,42.05,0,11.61,11.61,11.61,30.44,0,42.05"/>
  <path class="cls-1" d="M315.05,522.24c-11.62-11.62-11.61-30.44,0-42.05,11.61-11.61,30.43-11.62,42.05,0"/>
  <path class="cls-1" d="M324.15,437.94c-12.3,2.3-24.08,8.23-33.6,17.75-25.14,25.14-25.15,65.9,0,91.04"/>
  <path class="cls-1" d="M309.01,405.95c-15.74,4.44-30.58,12.86-42.96,25.25-38.68,38.68-38.68,101.37,0,140.04"/>
  <path class="cls-1" d="M299.82,372.54c-21.34,5.99-41.48,17.37-58.27,34.16-52.2,52.2-52.2,136.83,0,189.04"/>
  <path class="cls-1" d="M296.44,337.62c-29.1,7.01-56.67,21.87-79.39,44.58-65.73,65.73-65.73,172.3,0,238.03"/>
  <path class="cls-1" d="M299.25,301.61c-39.09,7.17-76.46,25.86-106.69,56.09-79.26,79.26-79.26,207.77,0,287.03"/>
  <path class="cls-1" d="M684.96,521.02c-11.62,11.62-30.44,11.61-42.05,0s-11.62-30.43,0-42.05"/>
  <path class="cls-1" d="M709.45,545.52c-25.15,25.15-65.91,25.14-91.04,0-25.14-25.14-25.15-65.9,0-91.04"/>
  <path class="cls-1" d="M733.95,570.02c-38.68,38.68-101.37,38.68-140.04,0-38.68-38.68-38.68-101.37,0-140.04"/>
  <path class="cls-1" d="M758.45,594.52c-52.2,52.2-136.83,52.2-189.04,0-52.2-52.2-52.2-136.83,0-189.04"/>
  <path class="cls-1" d="M782.95,619.02c-65.73,65.73-172.3,65.73-238.03,0-65.73-65.73-65.73-172.3,0-238.03"/>
  <path class="cls-1" d="M807.45,643.51c-79.26,79.26-207.77,79.26-287.03,0-79.26-79.26-79.26-207.77,0-287.03"/>
  <path class="cls-1" d="M642.91,478.98c11.62-11.62,30.44-11.61,42.05,0,11.61,11.61,11.62,30.43,0,42.05"/>
  <path class="cls-1" d="M675.38,436.64c12.48,2.24,24.42,8.19,34.07,17.83,25.14,25.14,25.15,65.9,0,91.04"/>
  <path class="cls-1" d="M690.29,404.53c15.99,4.4,31.09,12.88,43.66,25.45,38.68,38.68,38.68,101.37,0,140.04"/>
  <path class="cls-1" d="M699.22,371.05c21.69,5.91,42.19,17.4,59.22,34.43,52.2,52.2,52.2,136.83,0,189.04"/>
  <path class="cls-1" d="M702.35,336.11c29.53,6.88,57.57,21.85,80.6,44.87,65.73,65.73,65.73,172.3,0,238.03"/>
  <path class="cls-1" d="M699.27,300.12c39.63,6.97,77.56,25.75,108.18,56.36,79.26,79.26,79.26,207.77,0,287.03"/>
  <path class="cls-1" d="M436.36,677.71c2.47,11.85,8.3,23.15,17.51,32.35,25.14,25.14,65.9,25.15,91.04,0"/>
  <path class="cls-1" d="M404.34,692.4c4.52,15.43,12.85,29.98,25.03,42.16,38.68,38.68,101.37,38.68,140.04,0"/>
  <path class="cls-1" d="M370.83,701.19c6.01,21.2,17.36,41.18,34.04,57.86,52.2,52.2,136.83,52.2,189.04,0"/>
  <path class="cls-1" d="M335.79,704.18c7,29.09,21.87,56.67,44.58,79.37,65.73,65.73,172.3,65.73,238.03,0"/>
  <path class="cls-1" d="M299.7,700.9c7.12,39.26,25.84,76.81,56.18,107.15,79.26,79.26,207.77,79.26,287.03,0"/>
  <path class="cls-1" d="M544.91,710.06c9.65-9.65,15.59-21.59,17.83-34.07"/>
  <path class="cls-1" d="M569.41,734.56c12.57-12.57,21.05-27.67,25.45-43.66"/>
  <path class="cls-1" d="M593.91,759.06c17.04-17.04,28.52-37.53,34.43-59.22"/>
  <path class="cls-1" d="M618.41,783.56c23.03-23.03,37.99-51.06,44.87-80.6"/>
  <path class="cls-1" d="M642.91,808.05c30.61-30.61,49.39-68.55,56.36-108.18"/>
  <path class="cls-1" d="M521.55,644.72c-11.62-11.62-30.44-11.61-42.05,0-11.61,11.61-11.62,30.43,0,42.05,11.62,11.62,30.44,11.61,42.05,0,11.61-11.61,11.62-30.43,0-42.05Z"/>
  <line class="cls-1" x1="498.03" y1="630.13" x2="503.02" y2="630.13"/>
</svg>