<?xml version="1.0" encoding="UTF-8"?>
<svg id="Layer_1" data-name="Layer 1" xmlns="http://www.w3.org/2000/svg" viewBox="0 0 1000 1000">
  <defs>
    <style>
      .cls-1 {
        fill: none;
        stroke: #050101;
        stroke-linecap: round;
        stroke-linejoin: round;
        stroke-width: 10px;
      }
    </style>
  </defs>
  <path class="cls-1" d="M509.97,326.6c18.03-5.51,28.18-24.58,22.67-42.61-5.51-18.03-24.58-28.17-42.61-22.67-18.03,5.51-28.18,24.58-22.67,42.61,5.51,18.03,24.58,28.18,42.61,22.67Z"/>
  <path class="cls-1" d="M460.18,347.87c-11.18-8.25-19.91-20.02-24.28-34.33-10.81-35.4,9.12-72.86,44.52-83.67,21.09-6.45,42.91-1.98,59.4,10.18,11.18,8.25,19.91,20.02,24.28,34.33,10.12,33.15-6.71,68.13-37.98,81.31"/>
  <path class="cls-1" d="M440.64,374.33c-16.66-12.3-29.67-29.86-36.18-51.19-16.12-52.77,13.59-108.62,66.36-124.74,31.45-9.6,63.98-2.94,88.55,15.19,16.67,12.29,29.68,29.86,36.19,51.18,13.23,43.29-4.39,88.64-40.28,112.44"/>
  <path class="cls-1" d="M421.1,400.79c-22.15-16.34-39.44-39.68-48.11-68.04-21.42-70.14,18.07-144.38,88.21-165.8,41.79-12.76,85.03-3.9,117.7,20.18,22.15,16.34,39.44,39.68,48.1,68.03,14.36,47.01,1.36,95.86-29.9,129.41"/>
  <path class="cls-1" d="M479.72,321.41s49.57,36.61,104.95,77.52"/>
  <line class="cls-1" x1="526.03" y1="478.29" x2="421.09" y2="400.79"/>
  <line class="cls-1" x1="545.56" y1="451.86" x2="440.62" y2="374.36"/>
  <line class="cls-1" x1="565.07" y1="425.43" x2="460.14" y2="347.93"/>
  <path class="cls-1" d="M490.03,673.4c-18.03,5.51-28.18,24.58-22.67,42.61,5.51,18.03,24.58,28.17,42.61,22.67,18.03-5.51,28.18-24.58,22.67-42.61-5.51-18.03-24.58-28.18-42.61-22.67Z"/>
  <path class="cls-1" d="M539.82,652.13c11.18,8.25,19.91,20.02,24.28,34.33,10.81,35.4-9.11,72.86-44.52,83.67-21.09,6.45-42.91,1.98-59.4-10.18-11.18-8.25-19.91-20.02-24.28-34.33-10.12-33.15,6.71-68.13,37.98-81.31"/>
  <path class="cls-1" d="M559.36,625.67c16.66,12.3,29.67,29.86,36.18,51.19,16.12,52.77-13.59,108.62-66.36,124.74-31.45,9.6-63.98,2.94-88.55-15.19-16.67-12.29-29.68-29.86-36.19-51.18-13.23-43.29,4.39-88.64,40.28-112.44"/>
  <path class="cls-1" d="M578.9,599.21c22.15,16.34,39.44,39.68,48.11,68.04,21.42,70.14-18.07,144.38-88.21,165.8-41.79,12.76-85.03,3.9-117.7-20.18-22.16-16.34-39.44-39.68-48.1-68.03-14.47-47.38-1.16-96.63,30.64-130.2"/>
  <path class="cls-1" d="M598.43,572.78c27.64,20.39,49.21,49.5,60.01,84.87,26.72,87.51-22.54,180.1-110.04,206.83-52.13,15.93-106.08,4.88-146.82-25.17-27.65-20.38-49.21-49.5-60.02-84.87-10.3-33.74-9.31-68.25.83-99.43"/>
  <path class="cls-1" d="M415.29,601.04c55.4,40.92,104.99,77.55,104.99,77.55"/>
  <path class="cls-1" d="M598.43,572.78l-146.39-108.12-50.46-37.44c-27.65-20.38-49.21-49.49-60.02-84.87-26.72-87.5,22.55-180.1,110.04-206.83,52.13-15.92,106.08-4.87,146.83,25.18,27.64,20.38,49.21,49.49,60.01,84.87,10.29,33.7,9.31,68.17-.79,99.34"/>
  <line class="cls-1" x1="578.9" y1="599.22" x2="473.94" y2="521.69"/>
  <line class="cls-1" x1="559.38" y1="625.65" x2="454.41" y2="548.12"/>
  <line class="cls-1" x1="539.86" y1="652.08" x2="434.89" y2="574.55"/>
  <path class="cls-1" d="M316.66,489.99c-5.51-18.03-24.58-28.18-42.61-22.67-18.03,5.51-28.17,24.58-22.67,42.61,5.51,18.03,24.58,28.17,42.61,22.67,18.03-5.51,28.18-24.58,22.67-42.61Z"/>
  <path class="cls-1" d="M337.93,539.78c-8.25,11.18-20.02,19.91-34.33,24.28-35.4,10.81-72.86-9.12-83.67-44.52-6.45-21.09-1.98-42.91,10.18-59.4,8.25-11.18,20.02-19.91,34.33-24.28,33.15-10.12,68.13,6.71,81.31,37.98"/>
  <path class="cls-1" d="M364.39,559.33c-12.3,16.66-29.86,29.67-51.19,36.18-52.77,16.12-108.62-13.59-124.74-66.36-9.6-31.45-2.94-63.98,15.19-88.55,12.29-16.67,29.86-29.68,51.18-36.19,43.29-13.23,88.64,4.39,112.44,40.28"/>
  <path class="cls-1" d="M390.85,578.87c-16.34,22.15-39.68,39.44-68.04,48.11-60.9,18.6-124.89-8.72-154.72-62.16"/>
  <path class="cls-1" d="M168.09,564.82c-4.52-8.11-8.26-16.81-11.09-26.05-12.76-41.79-3.9-85.03,20.18-117.7,16.34-22.16,39.68-39.44,68.03-48.1,49.1-15,100.2-.16,133.79,34.16"/>
  <path class="cls-1" d="M342.36,344.9c-33.05-12.46-70.33-14.5-106.73-3.38-35.38,10.81-64.49,32.37-84.87,60.01-30.05,40.75-41.1,94.7-25.18,146.83,26.73,87.49,119.33,136.76,206.83,110.04,35.38-10.81,64.49-32.37,84.87-60.01"/>
  <path class="cls-1" d="M311.47,520.24s36.17-48.98,76.79-103.95"/>
  <line class="cls-1" x1="493.45" y1="495.26" x2="417.27" y2="598.4"/>
  <line class="cls-1" x1="467.02" y1="475.73" x2="390.84" y2="578.87"/>
  <line class="cls-1" x1="440.61" y1="456.18" x2="364.41" y2="559.34"/>
  <line class="cls-1" x1="414.21" y1="436.6" x2="337.98" y2="539.83"/>
  <path class="cls-1" d="M683.34,509.93c5.51,18.03,24.58,28.18,42.61,22.67,18.03-5.51,28.17-24.58,22.67-42.61-5.51-18.03-24.58-28.17-42.61-22.67-18.03,5.51-28.18,24.58-22.67,42.61Z"/>
  <path class="cls-1" d="M662.07,460.14c8.25-11.18,20.02-19.91,34.33-24.28,35.4-10.81,72.86,9.12,83.67,44.52,6.45,21.09,1.98,42.91-10.18,59.4-8.25,11.18-20.02,19.91-34.33,24.28-33.15,10.12-68.13-6.71-81.31-37.98"/>
  <path class="cls-1" d="M635.61,440.6c12.3-16.66,29.86-29.67,51.19-36.18,52.77-16.12,108.62,13.59,124.74,66.36,9.6,31.45,2.94,63.98-15.19,88.55-12.29,16.67-29.86,29.68-51.18,36.19-43.29,13.23-88.64-4.39-112.44-40.28"/>
  <path class="cls-1" d="M609.15,421.06c16.34-22.15,39.68-39.44,68.04-48.11,70.14-21.42,144.38,18.07,165.8,88.21,12.76,41.79,3.9,85.03-20.18,117.7-16.34,22.16-39.68,39.44-68.03,48.1-49.47,15.11-100.97-.07-134.55-34.94"/>
  <path class="cls-1" d="M582.72,401.53c20.39-27.64,49.5-49.21,84.87-60.01,87.51-26.72,180.1,22.55,206.83,110.04,15.93,52.13,4.88,106.08-25.17,146.83-20.39,27.64-49.5,49.21-84.87,60.01-36.41,11.12-73.71,9.08-106.77-3.41"/>
  <path class="cls-1" d="M611.7,583.69c40.63-55,76.82-104.01,76.82-104.01"/>
  <line class="cls-1" x1="582.72" y1="401.53" x2="506.43" y2="504.83"/>
  <line class="cls-1" x1="609.16" y1="421.06" x2="532.86" y2="524.36"/>
  <line class="cls-1" x1="635.59" y1="440.58" x2="559.29" y2="543.88"/>
  <line class="cls-1" x1="662.02" y1="460.11" x2="585.73" y2="563.39"/>
</svg>