<?xml version="1.0" encoding="UTF-8"?>
<svg id="Layer_1" data-name="Layer 1" xmlns="http://www.w3.org/2000/svg" viewBox="0 0 1000 1000">
  <defs>
    <style>
      .cls-1 {
        fill: none;
        stroke: #edb06f;
        stroke-linecap: round;
        stroke-linejoin: round;
        stroke-width: 12px;
      }
    </style>
  </defs>
  <path class="cls-1" d="M727.4,590.99c11.6,19.26,19.4,41.06,22.35,64.38.87,6.89,1.32,13.89,1.32,21.02,0,22.1-4.32,43.21-12.19,62.49-24.67,60.52-84.08,103.18-153.48,103.18-31.23,0-60.46-8.65-85.39-23.68"/>
  <path class="cls-1" d="M738.88,738.87c60.52-24.67,103.18-84.09,103.18-153.48,0-31.23-8.65-60.45-23.68-85.38"/>
  <path class="cls-1" d="M684.05,543.29c-27.55-20.46-61.69-32.56-98.66-32.56-16.53,0-32.5,2.42-47.56,6.93-9.69,2.9-17.26,10.48-20.17,20.17-4.51,15.06-6.93,31.03-6.93,47.56,0,36.96,12.1,71.09,32.56,98.66,12.9,17.37,29.11,32.13,47.71,43.34,19.23,11.6,41,19.39,64.28,22.35"/>
  <path class="cls-1" d="M769.38,549c-13,13.01-27.18,27.19-41.98,41.99-15.47,15.47-31.63,31.63-47.91,47.91-13.57,13.57-27.21,27.21-40.59,40.59"/>
  <path class="cls-1" d="M500,818.37c3.24-3.23,21.92-21.91,49-49,12.46-12.45,26.68-26.67,42-41.99"/>
  <path class="cls-1" d="M500,818.37c-24.93,15.03-54.16,23.68-85.39,23.68-69.4,0-128.82-42.66-153.48-103.18"/>
  <path class="cls-1" d="M409.01,727.38c-19.23,11.59-41.01,19.39-64.29,22.35-6.92.88-13.96,1.33-21.1,1.33-22.1,0-43.21-4.32-62.49-12.19-60.52-24.67-103.18-84.09-103.18-153.48,0-31.23,8.65-60.45,23.68-85.38"/>
  <path class="cls-1" d="M250.26,655.36c2.95-23.31,10.75-45.12,22.35-64.38,11.21-18.58,25.96-34.81,43.35-47.7,27.55-20.46,61.69-32.56,98.66-32.56,16.53,0,32.5,2.42,47.56,6.93,9.69,2.9,17.27,10.48,20.17,20.17,4.51,15.06,6.93,31.03,6.93,47.56,0,36.96-12.1,71.09-32.56,98.66"/>
  <path class="cls-1" d="M315.95,543.29c-15.35-15.35-29.98-29.98-43.28-43.28"/>
  <path class="cls-1" d="M500,727.34c-12.67-12.67-27.36-27.36-43.29-43.29-14.61-14.61-30.29-30.28-46.38-46.37l-48-48"/>
  <path class="cls-1" d="M313.77,686.21c-9.78-.92-19.28-3.25-28.34-6.95-13.6-5.55-25.5-13.75-35.18-23.89-17.63-18.44-27.94-43.26-27.94-69.98v-.48c.06-12.55,2.97-24.78,8.3-35.91,4.21-8.78,9.91-16.87,16.92-23.87,7.64-7.64,16.06-16.06,25.12-25.13"/>
  <path class="cls-1" d="M410.32,637.67c9.25-15.27,14.57-33.16,14.57-52.28v-.1c0-5.6-4.59-10.19-10.19-10.19h-.1c-19.12,0-37.02,5.32-52.28,14.57-18.78,11.35-33.58,28.63-41.81,49.23-4.65,11.6-7.2,24.26-7.2,37.49,0,3.3.15,6.58.46,9.83,3.25.32,6.53.47,9.84.47,13.24,0,25.89-2.55,37.49-7.2"/>
  <path class="cls-1" d="M500,727.34c-9.66,9.66-18.14,18.14-25.11,25.11-7.25,7.25-15.33,12.86-23.89,16.93-34.77,16.52-77.6,7.63-106.28-19.65"/>
  <path class="cls-1" d="M543.29,684.04c-15.93,15.93-30.62,30.62-43.29,43.29"/>
  <path class="cls-1" d="M589.67,637.67c15.77-15.77,31.96-31.96,48-48,15.78-15.79,31.43-31.43,46.37-46.38,15.35-15.35,29.98-29.98,43.28-43.28"/>
  <path class="cls-1" d="M679.49,638.9c4.65,11.6,7.2,24.26,7.2,37.49,0,3.3-.15,6.58-.46,9.83"/>
  <path class="cls-1" d="M727.33,499.99c9.07,9.07,17.49,17.49,25.13,25.13,7.01,7.01,12.71,15.1,16.92,23.87,5.33,11.13,8.24,23.36,8.3,35.91v.48c0,26.72-10.31,51.53-27.94,69.98"/>
  <path class="cls-1" d="M549,769.37c34.77,16.52,77.6,7.63,106.28-19.65,10.06-9.56,18.37-21.38,23.98-35.15,3.7-9.08,6.03-18.58,6.96-28.37-3.25.32-6.53.47-9.84.47-13.24,0-25.89-2.55-37.49-7.2-20.59-8.23-37.87-23.04-49.23-41.81-9.25-15.27-14.57-33.16-14.57-52.28v-.1c.01-5.6,4.59-10.19,10.19-10.19h.1c19.12,0,37.02,5.32,52.28,14.57"/>
  <path class="cls-1" d="M410.34,362.33c-15.78,15.77-31.97,31.96-48.01,48-15.78,15.78-31.43,31.43-46.37,46.37-15.35,15.36-29.98,29.99-43.28,43.29"/>
  <path class="cls-1" d="M500,272.66c-12.67,12.67-27.36,27.36-43.29,43.29"/>
  <path class="cls-1" d="M250.26,344.64c-17.63,18.44-27.94,43.26-27.94,69.98v.48c.06,12.55,2.97,24.78,8.3,35.91"/>
  <path class="cls-1" d="M362.32,410.33c15.27,9.25,33.16,14.57,52.28,14.57h.1c5.6-.01,10.19-4.59,10.19-10.19v-.1c0-19.12-5.32-37.02-14.56-52.28-11.36-18.78-28.65-33.58-49.24-41.81-11.6-4.65-24.25-7.2-37.49-7.2-3.3,0-6.59.15-9.84.47.93-9.79,3.26-19.29,6.96-28.37,5.61-13.77,13.92-25.59,23.97-35.15,28.69-27.27,71.52-36.17,106.29-19.65"/>
  <path class="cls-1" d="M320.51,361.1c-4.65-11.6-7.2-24.25-7.2-37.49,0-3.3.15-6.58.46-9.83"/>
  <path class="cls-1" d="M637.68,410.33c-16.04-16.04-32.23-32.23-48.01-48-16.09-16.09-31.76-31.76-46.37-46.37-15.93-15.93-30.62-30.62-43.29-43.29"/>
  <path class="cls-1" d="M727.34,499.99c-13.32-13.3-27.94-27.93-43.29-43.29"/>
  <path class="cls-1" d="M589.66,362.33c-9.24,15.27-14.56,33.16-14.56,52.28v.1c.01,5.6,4.59,10.18,10.19,10.19h.1c19.12,0,37.02-5.32,52.28-14.57,18.78-11.35,33.58-28.64,41.81-49.23,4.65-11.6,7.2-24.25,7.2-37.49,0-3.3-.15-6.58-.46-9.83,9.78.92,19.28,3.25,28.34,6.95,13.6,5.54,25.49,13.75,35.18,23.89,17.63,18.44,27.94,43.26,27.94,69.98v.48c-.06,12.55-2.97,24.78-8.3,35.91"/>
  <path class="cls-1" d="M655.3,250.27c-28.69-27.27-71.52-36.17-106.29-19.65-8.56,4.07-16.64,9.68-23.89,16.93-6.96,6.96-15.45,15.45-25.11,25.11"/>
  <path class="cls-1" d="M686.23,313.79c-3.25-.32-6.53-.47-9.84-.47-13.24,0-25.89,2.55-37.49,7.2"/>
  <path class="cls-1" d="M320.51,638.9c13.57,13.57,27.21,27.21,40.59,40.59,16.61,16.6,32.79,32.79,47.91,47.9,15.32,15.33,29.55,29.55,41.99,41.99"/>
  <path class="cls-1" d="M272.6,590.99c-14.81-14.81-28.98-28.98-41.98-41.99"/>
  <path class="cls-1" d="M749.74,344.64c-2.95,23.31-10.75,45.12-22.36,64.36-11.2,18.59-25.95,34.82-43.34,47.7-27.55,20.47-61.69,32.57-98.66,32.57-16.53,0-32.5-2.42-47.56-6.93-9.69-2.9-17.26-10.48-20.17-20.17-4.51-15.06-6.93-31.03-6.93-47.56,0-36.96,12.1-71.1,32.56-98.66"/>
  <path class="cls-1" d="M738.88,261.13c-24.67-60.52-84.08-103.18-153.48-103.18-31.23,0-60.46,8.65-85.39,23.68"/>
  <path class="cls-1" d="M818.38,500.01c15.03-24.95,23.68-54.16,23.68-85.39,0-69.4-42.66-128.82-103.18-153.48-19.28-7.86-40.38-12.19-62.49-12.19-7.15,0-14.18.45-21.09,1.33-23.29,2.96-45.06,10.75-64.29,22.35"/>
  <path class="cls-1" d="M549,230.63c12.46,12.45,26.68,26.67,42,41.99,15.11,15.12,31.3,31.3,47.9,47.9,13.38,13.38,27.02,27.02,40.59,40.59"/>
  <path class="cls-1" d="M818.38,500.01c-12.53-12.53-29.45-29.45-49-49-13-13.01-27.18-27.19-41.99-42"/>
  <path class="cls-1" d="M315.95,456.7c27.55,20.47,61.69,32.57,98.66,32.57,16.53,0,32.5-2.42,47.56-6.93,9.69-2.9,17.27-10.48,20.17-20.17,4.51-15.06,6.93-31.03,6.93-47.56,0-36.96-12.1-71.1-32.56-98.66-12.9-17.38-29.12-32.13-47.71-43.34-19.23-11.6-41-19.39-64.28-22.35"/>
  <path class="cls-1" d="M500,181.63c-24.93-15.03-54.16-23.68-85.39-23.68-69.4,0-128.82,42.66-153.48,103.18-7.86,19.28-12.19,40.38-12.19,62.49,0,7.12.45,14.14,1.32,21.02,2.95,23.31,10.75,45.12,22.36,64.36"/>
  <path class="cls-1" d="M181.62,500.01c-15.03-24.95-23.68-54.16-23.68-85.39,0-69.4,42.66-128.82,103.18-153.48"/>
  <path class="cls-1" d="M361.1,320.52c-13.38,13.38-27.02,27.02-40.59,40.59-16.27,16.28-32.43,32.43-47.9,47.9s-28.99,28.99-41.99,42c-19.55,19.55-36.47,36.47-48.99,48.99"/>
  <path class="cls-1" d="M500,181.63c-3.24,3.23-21.92,21.91-49,49-12.46,12.45-26.68,26.67-42,41.99"/>
</svg>